<svg width="32" height="33" viewBox="0 0 32 33" fill="none" xmlns="http://www.w3.org/2000/svg">
<g clip-path="url(#clip0_2001_4253)">
<path d="M20.7007 5.62832C21.8044 4.24781 22.5534 2.39418 22.3558 0.5C20.7402 0.58034 18.7685 1.56592 17.627 2.94752C16.6021 4.13064 15.695 6.06187 15.9315 7.87665C17.7451 8.03397 19.5572 6.9701 20.7007 5.62832Z" fill="black"/>
<path d="M22.3352 8.23097C19.7013 8.07407 17.4618 9.72584 16.204 9.72584C14.9454 9.72584 13.0193 8.31003 10.936 8.34818C8.22447 8.38801 5.70848 9.92114 4.33249 12.3595C1.50232 17.2375 3.58561 24.4732 6.3378 28.446C7.67433 30.4115 9.28507 32.5757 11.4075 32.4979C13.4128 32.4192 14.1988 31.1995 16.6363 31.1995C19.0721 31.1995 19.7801 32.4979 21.9028 32.4586C24.1042 32.4192 25.4804 30.4921 26.8169 28.5247C28.3502 26.2842 28.9778 24.1208 29.0173 24.002C28.9778 23.9627 24.7725 22.3494 24.7335 17.512C24.6938 13.4615 28.0352 11.5349 28.1924 11.4154C26.3055 8.6247 23.3573 8.31003 22.3352 8.23097Z" fill="black"/>
</g>
<defs>
<clipPath id="clip0_2001_4253">
<rect width="32" height="32" fill="white" transform="translate(0 0.5)"/>
</clipPath>
</defs>
</svg>
