<svg width="32" height="32" viewBox="0 0 32 32" fill="none" xmlns="http://www.w3.org/2000/svg">
<path d="M12.652 9.3335H8.26693C6.77345 9.3335 6.02616 9.3335 5.45573 9.62415C4.95396 9.87981 4.54631 10.2875 4.29065 10.7892C4 11.3597 4 12.107 4 13.6004V21.0671C4 22.5606 4 23.3063 4.29065 23.8767C4.54631 24.3785 4.95396 24.7875 5.45573 25.0431C6.0256 25.3335 6.77199 25.3335 8.26255 25.3335H23.7375C25.228 25.3335 25.9733 25.3335 26.5432 25.0431C27.045 24.7875 27.454 24.3785 27.7096 23.8767C28 23.3068 28 22.5615 28 21.071V13.596C28 12.1055 28 11.3591 27.7096 10.7892C27.454 10.2875 27.045 9.87981 26.5432 9.62415C25.9728 9.3335 25.2271 9.3335 23.7336 9.3335H19.3478M12.652 9.3335H12.7344M12.652 9.3335C12.6687 9.3335 12.6862 9.3335 12.7048 9.3335L12.7344 9.3335M12.652 9.3335C12.5105 9.33344 12.4312 9.3327 12.3685 9.32568C11.585 9.23797 11.0477 8.49226 11.2122 7.72128C11.2276 7.64953 11.2578 7.55875 11.3177 7.37899L11.3203 7.37138C11.3888 7.16607 11.423 7.06341 11.4608 6.97282C11.8478 6.04535 12.7243 5.4146 13.7266 5.34071C13.8245 5.3335 13.932 5.3335 14.1484 5.3335H17.8514C18.0679 5.3335 18.1763 5.3335 18.2742 5.34071C19.2765 5.4146 20.152 6.04535 20.5391 6.97282C20.5769 7.06341 20.6113 7.16595 20.6797 7.37126C20.7413 7.55615 20.7721 7.64864 20.7877 7.72141C20.9522 8.49239 20.4157 9.23797 19.6323 9.32568C19.5696 9.3327 19.4895 9.33344 19.3478 9.3335M12.7344 9.3335H19.2653M19.2653 9.3335H19.3478M19.2653 9.3335L19.2949 9.3335C19.3134 9.3335 19.331 9.3335 19.3478 9.3335M16 21.3335C13.7909 21.3335 12 19.5426 12 17.3335C12 15.1244 13.7909 13.3335 16 13.3335C18.2091 13.3335 20 15.1244 20 17.3335C20 19.5426 18.2091 21.3335 16 21.3335Z" stroke="#3486FE" stroke-width="2" stroke-linecap="round" stroke-linejoin="round"/>
</svg>
