<svg width="17" height="16" viewBox="0 0 17 16" fill="none" xmlns="http://www.w3.org/2000/svg">
<path d="M8.49935 5.33357L3.16602 10.6669V13.3336L5.83268 13.3336L11.166 8.00023M8.49935 5.33357L10.4118 3.42114L10.4129 3.42C10.6762 3.15675 10.808 3.02489 10.96 2.9755C11.0939 2.93199 11.2382 2.93199 11.3721 2.9755C11.524 3.02485 11.6557 3.15656 11.9186 3.41945L13.0784 4.57931C13.3424 4.84332 13.4745 4.97539 13.524 5.12761C13.5675 5.2615 13.5674 5.40573 13.5239 5.53963C13.4745 5.69174 13.3427 5.8236 13.079 6.08724L13.0784 6.0878L11.166 8.00023M8.49935 5.33357L11.166 8.00023" stroke="#4F4F4F" stroke-width="2" stroke-linecap="round" stroke-linejoin="round"/>
</svg>
