<svg width="32" height="33" viewBox="0 0 32 33" fill="none" xmlns="http://www.w3.org/2000/svg">
<path d="M16 3.21997C8.66663 3.21997 2.66663 9.20664 2.66663 16.58C2.66663 23.2466 7.54663 28.78 13.92 29.78V20.4466H10.5333V16.58H13.92V13.6333C13.92 10.2866 15.9066 8.44664 18.96 8.44664C20.4133 8.44664 21.9333 8.69997 21.9333 8.69997V11.9933H20.2533C18.6 11.9933 18.08 13.02 18.08 14.0733V16.58H21.7866L21.1866 20.4466H18.08V29.78C21.2219 29.2838 24.0829 27.6807 26.1465 25.2601C28.2102 22.8394 29.3404 19.7608 29.3333 16.58C29.3333 9.20664 23.3333 3.21997 16 3.21997Z" fill="url(#paint0_linear_2001_4250)"/>
<defs>
<linearGradient id="paint0_linear_2001_4250" x1="16" y1="3.21997" x2="16" y2="29.78" gradientUnits="userSpaceOnUse">
<stop stop-color="#19AFFF"/>
<stop offset="1" stop-color="#0063E1"/>
</linearGradient>
</defs>
</svg>
