<svg width="32" height="33" viewBox="0 0 32 33" fill="none" xmlns="http://www.w3.org/2000/svg">
<g clip-path="url(#clip0_2001_4416)">
<path d="M31.368 16.8686C31.368 15.7809 31.2798 14.6874 31.0917 13.6174H16V19.7787H24.6423C24.2837 21.7659 23.1314 23.5237 21.4441 24.6408V28.6386H26.6C29.6278 25.8519 31.368 21.7365 31.368 16.8686Z" fill="#4285F4"/>
<path d="M16 32.5012C20.3153 32.5012 23.9544 31.0843 26.6059 28.6386L21.4499 24.6408C20.0154 25.6167 18.1635 26.1694 16.0059 26.1694C11.8317 26.1694 8.29251 23.3533 7.02262 19.5671H1.70203V23.6884C4.41817 29.0913 9.95041 32.5012 16 32.5012Z" fill="#34A853"/>
<path d="M7.01672 19.5671C6.3465 17.58 6.3465 15.4282 7.01672 13.4411V9.31982H1.702C-0.567334 13.8409 -0.567334 19.1673 1.702 23.6884L7.01672 19.5671Z" fill="#FBBC04"/>
<path d="M16 6.83288C18.2811 6.79761 20.4858 7.65596 22.1378 9.23156L26.7059 4.66349C23.8134 1.94734 19.9743 0.454045 16 0.501078C9.95041 0.501078 4.41817 3.91096 1.70203 9.31974L7.01674 13.441C8.28075 9.64897 11.8259 6.83288 16 6.83288Z" fill="#EA4335"/>
</g>
<defs>
<clipPath id="clip0_2001_4416">
<rect width="32" height="32" fill="white" transform="translate(0 0.5)"/>
</clipPath>
</defs>
</svg>
