<svg width="64" height="64" viewBox="0 0 64 64" fill="none" xmlns="http://www.w3.org/2000/svg">
<path d="M10.6664 10.6666L53.333 53.3333M43.9997 44.6822C40.3928 46.6253 36.316 47.9996 31.9997 47.9996C22.5846 47.9996 14.31 41.4608 9.56481 36.7434C8.31227 35.4982 7.6861 34.8757 7.28747 33.6536C7.00318 32.782 7.00309 31.2175 7.28747 30.3459C7.68622 29.1239 8.31369 28.4998 9.56872 27.2524C11.9604 24.8752 15.248 22.0362 19.1258 19.8046M51.9997 39.0225C52.8878 38.2414 53.7012 37.4729 54.4312 36.7474L54.4389 36.7392C55.6886 35.4971 56.3152 34.8743 56.7131 33.6549C56.9974 32.7834 56.9968 31.2182 56.7126 30.3466C56.3141 29.1249 55.6871 28.5006 54.4354 27.2562C49.6902 22.5388 41.4148 16 31.9997 16C31.0997 16 30.2101 16.0597 29.333 16.1719M35.5275 36C34.5873 36.8298 33.3523 37.3333 31.9997 37.3333C29.0542 37.3333 26.6664 34.9455 26.6664 32C26.6664 30.5613 27.236 29.2562 28.1621 28.2968" stroke="white" stroke-width="4" stroke-linecap="round" stroke-linejoin="round"/>
</svg>
