<svg width="0" height="0" class="hidden">
  <symbol xmlns="http://www.w3.org/2000/svg" viewBox="0 0 24 25" id="arrow-next">
    <path d="M3.99984 11.4679V13.4679H15.9998L10.4998 18.9679L11.9198 20.3879L19.8398 12.4679L11.9198 4.54785L10.4998 5.96785L15.9998 11.4679H3.99984Z"></path>
  </symbol>
  <symbol xmlns="http://www.w3.org/2000/svg" viewBox="0 0 16 15" id="arrow-prev">
    <path d="M15 7.46777H1M1 7.46777L7 13.4678M1 7.46777L7 1.46777" stroke-width="2" stroke-linecap="round" stroke-linejoin="round"></path>
  </symbol>
  <symbol xmlns="http://www.w3.org/2000/svg" viewBox="0 0 24 24" id="user_square">
    <path d="M17 21C17 18.2386 14.7614 16 12 16C9.23858 16 7 18.2386 7 21M17 21L17.8031 21C18.921 21 19.48 21 19.9074 20.7822C20.2837 20.5905 20.5905 20.2837 20.7822 19.9074C21 19.48 21 18.921 21 17.8031L21 6.19691C21 5.07899 21 4.5192 20.7822 4.0918C20.5905 3.71547 20.2837 3.40973 19.9074 3.21799C19.4796 3 18.9203 3 17.8002 3L6.2002 3C5.08009 3 4.51962 3 4.0918 3.21799C3.71547 3.40973 3.40973 3.71547 3.21799 4.0918C3 4.51962 3 5.08009 3 6.2002L3 17.8002C3 18.9203 3 19.4796 3.21799 19.9074C3.40974 20.2837 3.71547 20.5905 4.0918 20.7822C4.5192 21 5.079 21 6.19691 21L7 21M17 21L7 21M12 13C10.3431 13 9 11.6569 9 10C9 8.34315 10.3431 7 12 7C13.6569 7 15 8.34314 15 10C15 11.6569 13.6569 13 12 13Z" stroke-width="2" stroke-linecap="round" stroke-linejoin="round"></path>
  </symbol>
  <symbol xmlns="http://www.w3.org/2000/svg" viewBox="0 0 24 24" id="add_plus">
    <path d="M8 12L12 12M12 12L16 12M12 12L12 16M12 12L12 8M12 21C7.02944 21 3 16.9706 3 12C3 7.02944 7.02944 3 12 3C16.9706 3 21 7.02944 21 12C21 16.9706 16.9706 21 12 21Z" stroke-width="2" stroke-linecap="round" stroke-linejoin="round"></path>
  </symbol>
  <symbol xmlns="http://www.w3.org/2000/svg" viewBox="0 0 20 18" id="heart">
    <path d="M17.0371 2.73731C18.5837 4.28395 18.643 6.77268 17.1716 8.39114L9.79929 16.5001L2.42792 8.39111C0.956598 6.77265 1.01585 4.2839 2.5625 2.73726C4.28941 1.01034 7.13352 1.16814 8.65917 3.0752L9.7998 4.50045L10.9394 3.07504C12.4651 1.16798 15.3102 1.01039 17.0371 2.73731Z" stroke-width="2" stroke-linecap="round" stroke-linejoin="round"></path>
  </symbol>
  <symbol xmlns="http://www.w3.org/2000/svg" viewBox="0 0 24 24" id="chat">
    <path d="M5.59961 19.9203L7.12357 18.7012L7.13478 18.6926C7.45249 18.4384 7.61281 18.3101 7.79168 18.2188C7.95216 18.1368 8.12328 18.0771 8.2998 18.0408C8.49877 18 8.70603 18 9.12207 18H17.8031C18.921 18 19.4806 18 19.908 17.7822C20.2843 17.5905 20.5905 17.2842 20.7822 16.9079C21 16.4805 21 15.9215 21 14.8036V7.19691C21 6.07899 21 5.5192 20.7822 5.0918C20.5905 4.71547 20.2837 4.40973 19.9074 4.21799C19.4796 4 18.9203 4 17.8002 4H6.2002C5.08009 4 4.51962 4 4.0918 4.21799C3.71547 4.40973 3.40973 4.71547 3.21799 5.0918C3 5.51962 3 6.08009 3 7.2002V18.6712C3 19.7369 3 20.2696 3.21846 20.5433C3.40845 20.7813 3.69644 20.9198 4.00098 20.9195C4.35115 20.9191 4.76744 20.5861 5.59961 19.9203Z" stroke-width="2" stroke-linecap="round" stroke-linejoin="round"></path>
  </symbol>
  <symbol xmlns="http://www.w3.org/2000/svg" viewBox="0 0 24 24" id="show">
    <path d="M3.58631 13.7788C5.36575 15.5478 8.46904 17.9999 11.9997 17.9999C15.5303 17.9999 18.6331 15.5478 20.4125 13.7788C20.8818 13.3123 21.1172 13.0782 21.2667 12.6201C21.3733 12.2933 21.3733 11.7067 21.2667 11.3799C21.1172 10.9218 20.8818 10.6877 20.4125 10.2211C18.633 8.45208 15.5303 6 11.9997 6C8.46904 6 5.36575 8.45208 3.58631 10.2211C3.11665 10.688 2.8818 10.9216 2.73231 11.3799C2.62569 11.7067 2.62569 12.2933 2.73231 12.6201C2.8818 13.0784 3.11665 13.3119 3.58631 13.7788Z" stroke-width="2" stroke-linecap="round" stroke-linejoin="round"></path>
    <path d="M9.99951 12C9.99951 13.1046 10.8949 14 11.9995 14C13.1041 14 13.9995 13.1046 13.9995 12C13.9995 10.8954 13.1041 10 11.9995 10C10.8949 10 9.99951 10.8954 9.99951 12Z" stroke-width="2" stroke-linecap="round" stroke-linejoin="round"></path>
  </symbol>
  <symbol xmlns="http://www.w3.org/2000/svg" viewBox="0 0 24 24" id="suitcase">
    <path d="M8 8H6.2002C5.08009 8 4.51962 8 4.0918 8.21799C3.71547 8.40973 3.40973 8.71547 3.21799 9.0918C3 9.51962 3 10.0801 3 11.2002V16.8002C3 17.9203 3 18.4801 3.21799 18.9079C3.40973 19.2842 3.71547 19.5905 4.0918 19.7822C4.5192 20 5.07899 20 6.19691 20H17.8031C18.921 20 19.48 20 19.9074 19.7822C20.2837 19.5905 20.5905 19.2842 20.7822 18.9079C21 18.4805 21 17.9215 21 16.8036V11.1969C21 10.079 21 9.5192 20.7822 9.0918C20.5905 8.71547 20.2837 8.40973 19.9074 8.21799C19.4796 8 18.9203 8 17.8002 8H16M8 8H16M8 8C8 5.79086 9.79086 4 12 4C14.2091 4 16 5.79086 16 8" stroke-width="2" stroke-linecap="round" stroke-linejoin="round"></path>
  </symbol>
  <symbol xmlns="http://www.w3.org/2000/svg" viewBox="0 0 24 25" id="expand">
    <path d="M10 19.7748H5V14.7748M14 5.77478H19V10.7748" stroke-width="2" stroke-linecap="round" stroke-linejoin="round"></path>
  </symbol>
</svg>