<svg width="0" height="0" class="hidden">
  <symbol xmlns="http://www.w3.org/2000/svg" viewBox="0 0 24 25" id="arrow-next">
    <path d="M3.99984 11.4679V13.4679H15.9998L10.4998 18.9679L11.9198 20.3879L19.8398 12.4679L11.9198 4.54785L10.4998 5.96785L15.9998 11.4679H3.99984Z"></path>
  </symbol>
  <symbol xmlns="http://www.w3.org/2000/svg" viewBox="0 0 18 18" id="note">
    <path d="M10 16.9991C9.90511 17 9.79863 17 9.67703 17H4.19691C3.07899 17 2.5192 17 2.0918 16.7822C1.71547 16.5905 1.40973 16.2842 1.21799 15.9079C1 15.4801 1 14.9203 1 13.8002V4.2002C1 3.08009 1 2.51962 1.21799 2.0918C1.40973 1.71547 1.71547 1.40973 2.0918 1.21799C2.51962 1 3.08009 1 4.2002 1H13.8002C14.9203 1 15.4796 1 15.9074 1.21799C16.2837 1.40973 16.5905 1.71547 16.7822 2.0918C17 2.5192 17 3.07899 17 4.19691V9.67471C17 9.79731 17 9.90453 16.9991 10M10 16.9991C10.2857 16.9966 10.4663 16.9862 10.6388 16.9448C10.8429 16.8958 11.0379 16.8147 11.2168 16.705C11.4186 16.5814 11.5916 16.4089 11.9375 16.063L16.063 11.9375C16.4089 11.5916 16.5809 11.4186 16.7046 11.2168C16.8142 11.0379 16.8953 10.8424 16.9443 10.6384C16.9857 10.4659 16.9964 10.2855 16.9991 10M10 16.9991V11.6001C10 11.04 10 10.7598 10.109 10.5459C10.2049 10.3577 10.3577 10.2049 10.5459 10.109C10.7598 10 11.0396 10 11.5996 10H16.9991"  stroke-width="2" stroke-linecap="round" stroke-linejoin="round"></path>
  </symbol>
  <symbol xmlns="http://www.w3.org/2000/svg" viewBox="0 0 20 20" id="note-edit">
    <path d="M7.0002 3H4.2002C3.08009 3 2.51962 3 2.0918 3.21799C1.71547 3.40973 1.40973 3.71547 1.21799 4.0918C1 4.51962 1 5.08009 1 6.2002V15.8002C1 16.9203 1 17.4801 1.21799 17.9079C1.40973 18.2842 1.71547 18.5905 2.0918 18.7822C2.5192 19 3.07899 19 4.19691 19H13.8031C14.921 19 15.48 19 15.9074 18.7822C16.2837 18.5905 16.5905 18.2839 16.7822 17.9076C17 17.4802 17 16.921 17 15.8031V13M13 4L7 10V13H10L16 7M13 4L16 1L19 4L16 7M13 4L16 7" stroke-width="2" stroke-linecap="round" stroke-linejoin="round"></path>
  </symbol>
  <symbol xmlns="http://www.w3.org/2000/svg" viewBox="0 0 20 14" id="user-card">
    <path d="M4 13C4.06366 13 4.12926 13 4.19691 13H10M4 13C3.01173 12.9992 2.49334 12.9868 2.0918 12.7822C1.71547 12.5905 1.40973 12.2837 1.21799 11.9074C1 11.4796 1 10.9203 1 9.8002V4.2002C1 3.08009 1 2.51962 1.21799 2.0918C1.40973 1.71547 1.71547 1.40973 2.0918 1.21799C2.51962 1 3.08009 1 4.2002 1H15.8002C16.9203 1 17.4796 1 17.9074 1.21799C18.2837 1.40973 18.5905 1.71547 18.7822 2.0918C19 2.5192 19 3.07899 19 4.19691V9.80309C19 10.921 19 11.48 18.7822 11.9074C18.5905 12.2837 18.2837 12.5905 17.9074 12.7822C17.48 13 16.921 13 15.8031 13H10M4 13C4.00004 11.8954 5.34317 11 7 11C8.65685 11 10 11.8954 10 13M4 13C4 13 4 12.9999 4 13ZM16 9H12M16 6H13M7 8C5.89543 8 5 7.10457 5 6C5 4.89543 5.89543 4 7 4C8.10457 4 9 4.89543 9 6C9 7.10457 8.10457 8 7 8Z" stroke-width="2" stroke-linecap="round" stroke-linejoin="round"></path>
  </symbol>
  <symbol fill="none" xmlns="http://www.w3.org/2000/svg" viewBox="0 0 8 8" id="arrow-drop-down">
    <path d="M5.71967 0.700251L0.28033 6.13959C-0.192143 6.61207 0.142482 7.41992 0.81066 7.41992H5.5C6.32843 7.41992 7 6.74835 7 5.91992V1.23058C7 0.562403 6.19214 0.227777 5.71967 0.700251Z" fill="#3486FE"></path>
  </symbol>
  <symbol xmlns="http://www.w3.org/2000/svg" viewBox="0 0 24 24" id="check">
    <path d="M6 12L10.2426 16.2426L18.727 7.75732" stroke-width="2" stroke-linecap="round" stroke-linejoin="round"></path>
  </symbol>
  <symbol xmlns="http://www.w3.org/2000/svg" viewBox="0 0 24 25" id="history">
    <path d="M12.0005 8.41992V12.4199L16.0005 14.4199M3.80469 8.69601C5.22107 5.58371 8.35812 3.41992 12.0005 3.41992C16.9711 3.41992 21.0005 7.44936 21.0005 12.4199C21.0005 17.3905 16.9711 21.4199 12.0005 21.4199C7.41293 21.4199 3.62701 17.9874 3.07089 13.5506M3.80469 8.69601L2.80469 3.62265M3.80469 8.69601L8.79613 7.69601" stroke-width="2" stroke-linecap="round" stroke-linejoin="round"></path>
  </symbol>
  <symbol xmlns="http://www.w3.org/2000/svg" viewBox="0 0 24 25" id="filters">
    <path d="M10 16.4199H3M21 16.4199H19M19 16.4199C19 17.8006 17.8807 18.9199 16.5 18.9199C15.1193 18.9199 14 17.8006 14 16.4199C14 15.0392 15.1193 13.9199 16.5 13.9199C17.8807 13.9199 19 15.0392 19 16.4199ZM4 8.41992H3M21 8.41992H14M7.5 10.9199C8.88071 10.9199 10 9.80063 10 8.41992C10 7.03921 8.88071 5.91992 7.5 5.91992C6.11929 5.91992 5 7.03921 5 8.41992C5 9.80063 6.11929 10.9199 7.5 10.9199Z" stroke-width="2" stroke-linecap="round" stroke-linejoin="round"></path>
  </symbol>
  <symbol fill="none" xmlns="http://www.w3.org/2000/svg" viewBox="0 0 24 25" id="filters-notify">
    <path d="M16.5 12.9199C18.0855 12.9199 19.4242 13.9743 19.8545 15.4199H21C21.5523 15.4199 22 15.8676 22 16.4199C22 16.9722 21.5523 17.4199 21 17.4199H19.8545C19.4242 18.8656 18.0855 19.9199 16.5 19.9199C14.567 19.9199 13 18.3529 13 16.4199C13 14.4869 14.567 12.9199 16.5 12.9199ZM16.5 14.9199C15.6716 14.9199 15 15.5915 15 16.4199C15 17.2483 15.6716 17.9199 16.5 17.9199C17.3284 17.9199 18 17.2483 18 16.4199C18 15.5915 17.3284 14.9199 16.5 14.9199ZM10 15.4199C10.5523 15.4199 11 15.8676 11 16.4199C11 16.9722 10.5523 17.4199 10 17.4199H3C2.44772 17.4199 2 16.9722 2 16.4199C2 15.8676 2.44772 15.4199 3 15.4199H10ZM7.5 4.91992C9.433 4.91992 11 6.48693 11 8.41992C11 10.3529 9.433 11.9199 7.5 11.9199C5.91032 11.9199 4.56918 10.8598 4.14258 9.4082C4.09594 9.41487 4.04849 9.41992 4 9.41992H3C2.44772 9.41992 2 8.97221 2 8.41992C2 7.86764 2.44772 7.41992 3 7.41992H4C4.04844 7.41992 4.09598 7.42401 4.14258 7.43066C4.56947 5.97952 5.91065 4.91992 7.5 4.91992ZM7.5 6.91992C6.67157 6.91992 6 7.59149 6 8.41992C6 9.24835 6.67157 9.91992 7.5 9.91992C8.32843 9.91992 9 9.24835 9 8.41992C9 7.59149 8.32843 6.91992 7.5 6.91992ZM14.417 7.41992C14.7649 8.21615 15.3137 8.90435 16 9.41992H14C13.4477 9.41992 13 8.97221 13 8.41992C13 7.86764 13.4477 7.41992 14 7.41992H14.417Z" fill="#3486fe"></path>
    <path d="M19 2.41992C17.3431 2.41992 16 3.76307 16 5.41992C16 7.07678 17.3431 8.41992 19 8.41992C20.6569 8.41992 22 7.07678 22 5.41992C22 3.76307 20.6569 2.41992 19 2.41992Z" stroke="#F9329C" stroke-width="2" stroke-linecap="round" stroke-linejoin="round"></path>
  </symbol>
  <symbol xmlns="http://www.w3.org/2000/svg" viewBox="0 0 24 25" id="search-glass">
    <path d="M15 15.4199L21 21.4199M10 17.4199C6.13401 17.4199 3 14.2859 3 10.4199C3 6.55393 6.13401 3.41992 10 3.41992C13.866 3.41992 17 6.55393 17 10.4199C17 14.2859 13.866 17.4199 10 17.4199Z" stroke-width="2" stroke-linecap="round" stroke-linejoin="round"></path>
  </symbol>
  <symbol xmlns="http://www.w3.org/2000/svg" viewBox="0 0 24 24" id="switch-right">
    <path d="M8 18H16C19.3137 18 22 15.3137 22 12C22 8.68629 19.3137 6 16 6H8C4.68629 6 2 8.68629 2 12C2 15.3137 4.68629 18 8 18Z" stroke-width="2" stroke-linecap="round" stroke-linejoin="round"></path>
    <path d="M16 9C14.3431 9 13 10.3431 13 12C13 13.6569 14.3431 15 16 15C17.6569 15 19 13.6569 19 12C19 10.3431 17.6569 9 16 9Z" stroke-width="2" stroke-linecap="round" stroke-linejoin="round"></path>
  </symbol>
  <symbol xmlns="http://www.w3.org/2000/svg" viewBox="0 0 24 24" id="switch-left">
    <path d="M8 18H16C19.3137 18 22 15.3137 22 12C22 8.68629 19.3137 6 16 6H8C4.68629 6 2 8.68629 2 12C2 15.3137 4.68629 18 8 18Z" stroke-width="2" stroke-linecap="round" stroke-linejoin="round"></path>
    <path d="M8 9C6.34315 9 5 10.3431 5 12C5 13.6569 6.34315 15 8 15C9.65685 15 11 13.6569 11 12C11 10.3431 9.65685 9 8 9Z" stroke-width="2" stroke-linecap="round" stroke-linejoin="round"></path>
  </symbol>
  <symbol xmlns="http://www.w3.org/2000/svg" viewBox="0 0 24 24" id="credit-card">
    <path d="M11.5 15C10.6716 15 10 14.3284 10 13.5C10 12.6716 10.6716 12 11.5 12M3 15.8002V8.2002C3 7.08009 3 6.51962 3.21799 6.0918C3.40973 5.71547 3.71547 5.40973 4.0918 5.21799C4.51962 5 5.08009 5 6.2002 5H17.8002C18.9203 5 19.4796 5 19.9074 5.21799C20.2837 5.40973 20.5905 5.71547 20.7822 6.0918C21 6.5192 21 7.07899 21 8.19691V15.8036C21 16.9215 21 17.4805 20.7822 17.9079C20.5905 18.2842 20.2837 18.5905 19.9074 18.7822C19.48 19 18.921 19 17.8031 19H6.19691C5.07899 19 4.5192 19 4.0918 18.7822C3.71547 18.5905 3.40973 18.2842 3.21799 17.9079C3 17.4801 3 16.9203 3 15.8002ZM17 13.5C17 14.3284 16.3284 15 15.5 15C14.6716 15 14 14.3284 14 13.5C14 12.6716 14.6716 12 15.5 12C16.3284 12 17 12.6716 17 13.5Z" stroke-width="2" stroke-linecap="round" stroke-linejoin="round"></path>
  </symbol>
  <symbol xmlns="http://www.w3.org/2000/svg" viewBox="0 0 24 24" id="dummy-circle-small">
    <path d="M12 8C9.79086 8 8 9.79086 8 12C8 14.2091 9.79086 16 12 16C14.2091 16 16 14.2091 16 12C16 9.79086 14.2091 8 12 8Z" fill="#F9329C" stroke="#F9329C" stroke-width="2" stroke-linecap="round" stroke-linejoin="round"></path>
  </symbol>
  <symbol xmlns="http://www.w3.org/2000/svg" viewBox="0 0 24 24" id="circle-small">
    <path d="M12 8C9.79086 8 8 9.79086 8 12C8 14.2091 9.79086 16 12 16C14.2091 16 16 14.2091 16 12C16 9.79086 14.2091 8 12 8Z" stroke-width="2" stroke-linecap="round" stroke-linejoin="round"></path>
  </symbol>
  <symbol xmlns="http://www.w3.org/2000/svg" viewBox="0 0 24 24" id="chat">
    <path d="M5.59961 19.9203L7.12357 18.7012L7.13478 18.6926C7.45249 18.4384 7.61281 18.3101 7.79168 18.2187C7.95216 18.1368 8.12328 18.0771 8.29981 18.0408C8.49878 18 8.70604 18 9.12207 18L17.8031 18C18.921 18 19.4806 18 19.908 17.7822C20.2843 17.5905 20.5905 17.2842 20.7822 16.9079C21 16.4805 21 15.9215 21 14.8036L21 7.19691C21 6.07899 21 5.5192 20.7822 5.0918C20.5905 4.71547 20.2837 4.40973 19.9074 4.21799C19.4796 4 18.9203 4 17.8002 4L6.2002 4C5.08009 4 4.51962 4 4.0918 4.21799C3.71547 4.40973 3.40973 4.71547 3.21799 5.0918C3 5.51962 3 6.08009 3 7.2002L3 18.6712C3 19.7369 3 20.2696 3.21846 20.5433C3.40845 20.7813 3.69644 20.9198 4.00098 20.9195C4.35115 20.9191 4.76744 20.5861 5.59961 19.9203Z" stroke-width="2" stroke-linecap="round" stroke-linejoin="round"></path>
  </symbol>
  <symbol xmlns="http://www.w3.org/2000/svg" viewBox="0 0 24 24" id="globe">
    <path d="M3 12L8 12M3 12C3 16.9706 7.02944 21 12 21M3 12C3 7.02944 7.02944 3 12 3M8 12L16 12M8 12C8 16.9706 9.79086 21 12 21M8 12C8 7.02944 9.79086 3 12 3M16 12L21 12M16 12C16 7.02944 14.2091 3 12 3M16 12C16 16.9706 14.2091 21 12 21M21 12C21 7.02944 16.9706 3 12 3M21 12C21 16.9706 16.9706 21 12 21" stroke-width="2" stroke-linecap="round" stroke-linejoin="round"></path>
  </symbol>
  <symbol xmlns="http://www.w3.org/2000/svg" viewBox="0 0 24 24" id="triangle-warning">
    <path d="M12 9.00006V13.0001M4.37891 15.1999C3.46947 16.775 3.01489 17.5629 3.08281 18.2092C3.14206 18.7729 3.43792 19.2851 3.89648 19.6182C4.42204 20.0001 5.3309 20.0001 7.14853 20.0001H16.8515C18.6691 20.0001 19.5778 20.0001 20.1034 19.6182C20.5619 19.2851 20.8579 18.7729 20.9172 18.2092C20.9851 17.5629 20.5307 16.775 19.6212 15.1999L14.7715 6.79986C13.8621 5.22468 13.4071 4.43722 12.8135 4.17291C12.2957 3.94236 11.704 3.94236 11.1862 4.17291C10.5928 4.43711 10.1381 5.22458 9.22946 6.79845L4.37891 15.1999ZM12.0508 16.0001V16.1001L11.9502 16.1003V16.0001H12.0508Z" stroke-width="2" stroke-linecap="round" stroke-linejoin="round"></path>
  </symbol>
  <symbol xmlns="http://www.w3.org/2000/svg" viewBox="0 0 24 24" id="close">
    <path d="M18 18L12 12M12 12L6 6M12 12L18 6M12 12L6 18" stroke-width="2" stroke-linecap="round" stroke-linejoin="round"></path>
  </symbol>
  <symbol xmlns="http://www.w3.org/2000/svg" viewBox="0 0 24 24" id="arrow-down-select">
    <path d="M16 10L12 14L8 10" stroke-width="2" stroke-linecap="round" stroke-linejoin="round"></path>
  </symbol>
  <symbol fill="none" xmlns="http://www.w3.org/2000/svg" viewBox="0 0 24 24" id="chat-notify">
    <path d="M14.417 3C14.1493 3.61256 14 4.28876 14 5L6.2002 5C5.62366 5 5.25124 5.00127 4.96778 5.02442C4.69598 5.04662 4.59528 5.08422 4.5459 5.10938C4.3578 5.20524 4.20524 5.35779 4.10938 5.5459C4.08422 5.59528 4.04662 5.69598 4.02442 5.96778C4.00127 6.25124 4.00001 6.62366 4.00001 7.2002L4.00001 18.6709C4.00001 19.2235 4.00126 19.569 4.02344 19.8135C4.02484 19.8288 4.02785 19.8432 4.0293 19.8564C4.0408 19.8492 4.05519 19.8437 4.06837 19.835C4.27318 19.6995 4.54337 19.4846 4.97462 19.1397L6.49903 17.9199L6.51465 17.9082C6.79955 17.6802 7.04833 17.4756 7.33692 17.3281C7.57854 17.2047 7.83512 17.1156 8.09864 17.0615C8.42005 16.9956 8.74598 17 9.12208 17L17.8027 17C18.3782 17 18.7503 16.9997 19.0332 16.9766C19.3042 16.9544 19.4048 16.9167 19.4541 16.8916C19.6421 16.7958 19.7957 16.6424 19.8916 16.4541C19.9167 16.4048 19.9544 16.3042 19.9766 16.0332C19.9997 15.7505 20 15.3791 20 14.8037L20 9.89942C20.7391 9.74937 21.4185 9.43597 22 8.99903L22 14.8037C22 15.3461 22.0011 15.8132 21.9697 16.1963C21.9374 16.5911 21.8655 16.9843 21.6729 17.3623C21.3854 17.9263 20.9266 18.3852 20.3623 18.6729C19.9842 18.8655 19.5911 18.9374 19.1963 18.9697C18.813 19.0011 18.3452 19 17.8027 19L9.12208 19C8.66632 19 8.57749 19.0048 8.50098 19.0205C8.4117 19.0388 8.32621 19.069 8.24708 19.1094C8.17945 19.1439 8.10835 19.1948 7.75977 19.4736C7.75472 19.4777 7.74928 19.4814 7.74415 19.4854L6.22462 20.7012C5.82409 21.0216 5.46974 21.3063 5.17091 21.5039C4.88759 21.6912 4.48638 21.9194 4.00196 21.9199C3.39281 21.9205 2.81642 21.6429 2.43653 21.167C2.13458 20.7885 2.062 20.3333 2.03126 19.9951C1.99886 19.6384 2.00001 19.1838 2.00001 18.6709L2.00001 7.2002C2.00001 6.65664 1.99893 6.18845 2.03028 5.80469C2.06258 5.40942 2.13437 5.01605 2.32715 4.6377C2.61475 4.07334 3.07334 3.61475 3.6377 3.32715C4.01605 3.13437 4.40942 3.06258 4.80469 3.03028C5.18845 2.99893 5.65664 3 6.2002 3L14.417 3Z" fill="#3486FE"></path>
    <path d="M19 2C17.3431 2 16 3.34315 16 5C16 6.65685 17.3431 8 19 8C20.6569 8 22 6.65685 22 5C22 3.34315 20.6569 2 19 2Z" stroke="#F9329C" stroke-width="2" stroke-linecap="round" stroke-linejoin="round"></path>
  </symbol>
  <symbol xmlns="http://www.w3.org/2000/svg" viewBox="0 0 16 16" id="arrow-circle-up">
    <path d="M10 7.33333L8 5.33333M8 5.33333L6 7.33333M8 5.33333V10.6667M14 8C14 4.68629 11.3137 2 8 2C4.68629 2 2 4.68629 2 8C2 11.3137 4.68629 14 8 14C11.3137 14 14 11.3137 14 8Z" stroke-width="2" stroke-linecap="round" stroke-linejoin="round"></path>
  </symbol>
  <symbol xmlns="http://www.w3.org/2000/svg" viewBox="0 0 16 16" id="edit-pencil">
    <path d="M7.99935 5.33211L2.66602 10.6654V13.3321L5.33268 13.3321L10.666 7.99877M7.99935 5.33211L9.91177 3.41967L9.91292 3.41854C10.1762 3.15528 10.308 3.02342 10.46 2.97404C10.5939 2.93053 10.7382 2.93053 10.8721 2.97404C11.024 3.02339 11.1557 3.1551 11.4186 3.41798L12.5784 4.57785C12.8424 4.84186 12.9745 4.97392 13.024 5.12614C13.0675 5.26004 13.0674 5.40427 13.0239 5.53816C12.9745 5.69027 12.8427 5.82214 12.579 6.08577L12.5784 6.08634L10.666 7.99877M7.99935 5.33211L10.666 7.99877" stroke-width="2" stroke-linecap="round" stroke-linejoin="round"></path>
  </symbol>
  <symbol xmlns="http://www.w3.org/2000/svg" viewBox="0 0 24 24" id="suitcase">
    <path d="M8 8H6.2002C5.08009 8 4.51962 8 4.0918 8.21799C3.71547 8.40973 3.40973 8.71547 3.21799 9.0918C3 9.51962 3 10.0801 3 11.2002V16.8002C3 17.9203 3 18.4801 3.21799 18.9079C3.40973 19.2842 3.71547 19.5905 4.0918 19.7822C4.5192 20 5.07899 20 6.19691 20H17.8031C18.921 20 19.48 20 19.9074 19.7822C20.2837 19.5905 20.5905 19.2842 20.7822 18.9079C21 18.4805 21 17.9215 21 16.8036V11.1969C21 10.079 21 9.5192 20.7822 9.0918C20.5905 8.71547 20.2837 8.40973 19.9074 8.21799C19.4796 8 18.9203 8 17.8002 8H16M8 8H16M8 8C8 5.79086 9.79086 4 12 4C14.2091 4 16 5.79086 16 8" stroke-width="2" stroke-linecap="round" stroke-linejoin="round"></path>
  </symbol>
  <symbol xmlns="http://www.w3.org/2000/svg" viewBox="0 0 24 24" id="expand">
    <path d="M10 19H5L5 14M14 5L19 5V10" stroke-width="2" stroke-linecap="round" stroke-linejoin="round"></path>
  </symbol>
  <symbol fill="none" xmlns="http://www.w3.org/2000/svg" viewBox="0 0 24 24" id="star">
    <path d="M0 0C10.324 0 15.486 0 19.0173 2.76661C19.8427 3.41323 20.5868 4.15731 21.2334 4.98265C24 8.51398 24 13.676 24 24C13.676 24 8.51398 24 4.98265 21.2334C4.15731 20.5868 3.41323 19.8427 2.76661 19.0173C0 15.486 0 10.324 0 0Z" fill="white"></path>
    <path d="M6.20215 11.0037C6.0142 10.8299 6.11629 10.5157 6.37051 10.4856L9.97266 10.0583C10.0763 10.046 10.1663 9.98095 10.21 9.88621L11.7293 6.59234C11.8365 6.35988 12.167 6.35983 12.2742 6.59229L13.7936 9.88614C13.8373 9.98088 13.9267 10.0461 14.0303 10.0584L17.6326 10.4856C17.8868 10.5157 17.9886 10.83 17.8007 11.0038L15.1378 13.4668C15.0612 13.5376 15.0271 13.6431 15.0475 13.7454L15.7542 17.3032C15.8041 17.5543 15.5368 17.7489 15.3135 17.6238L12.1483 15.8516C12.0572 15.8007 11.9466 15.8009 11.8556 15.8519L8.69003 17.6234C8.46665 17.7484 8.19894 17.5543 8.24883 17.3032L8.95566 13.7456C8.97599 13.6433 8.94197 13.5376 8.86537 13.4668L6.20215 11.0037Z" stroke="#F9329C" stroke-width="2" stroke-linecap="round" stroke-linejoin="round"></path>
  </symbol>
  <symbol xmlns="http://www.w3.org/2000/svg" viewBox="0 0 24 25" id="trash">
    <path d="M6 6.61328V18.4133C6 19.5334 6 20.0931 6.21799 20.5209C6.40973 20.8972 6.71547 21.2038 7.0918 21.3955C7.5192 21.6133 8.07899 21.6133 9.19691 21.6133H14.8031C15.921 21.6133 16.48 21.6133 16.9074 21.3955C17.2837 21.2038 17.5905 20.8972 17.7822 20.5209C18 20.0935 18 19.5343 18 18.4164V6.61328M6 6.61328H8M6 6.61328H4M8 6.61328H16M8 6.61328C8 5.6814 8 5.21569 8.15224 4.84814C8.35523 4.35809 8.74432 3.96851 9.23438 3.76552C9.60192 3.61328 10.0681 3.61328 11 3.61328H13C13.9319 3.61328 14.3978 3.61328 14.7654 3.76552C15.2554 3.96851 15.6447 4.35809 15.8477 4.84814C15.9999 5.21569 16 5.6814 16 6.61328M16 6.61328H18M18 6.61328H20" stroke-width="2" stroke-linecap="round" stroke-linejoin="round"></path>
  </symbol>
  <symbol xmlns="http://www.w3.org/2000/svg" viewBox="0 0 24 25" id="plus">
    <path d="M6 12.6133H12M12 12.6133H18M12 12.6133V18.6133M12 12.6133V6.61328" stroke-width="2" stroke-linecap="round" stroke-linejoin="round"></path>
  </symbol>
  <symbol xmlns="http://www.w3.org/2000/svg" viewBox="0 0 16 16" id="show">
    <path d="M2.39218 9.18587C3.57847 10.3652 5.64733 11.9999 8.0011 11.9999C10.3549 11.9999 12.4233 10.3652 13.6096 9.18587C13.9225 8.87484 14.0795 8.71879 14.1791 8.41341C14.2502 8.19552 14.2502 7.80449 14.1791 7.5866C14.0795 7.28121 13.9225 7.12513 13.6096 6.81407C12.4233 5.63472 10.3549 4 8.0011 4C5.64733 4 3.57847 5.63472 2.39218 6.81407C2.07907 7.12535 1.9225 7.2811 1.82284 7.5866C1.75176 7.80449 1.75176 8.19552 1.82284 8.41341C1.9225 8.71891 2.07907 8.87459 2.39218 9.18587Z" stroke-width="2" stroke-linecap="round" stroke-linejoin="round"></path>
    <path d="M6.66764 8C6.66764 8.73638 7.2646 9.33333 8.00098 9.33333C8.73736 9.33333 9.33431 8.73638 9.33431 8C9.33431 7.26362 8.73736 6.66667 8.00098 6.66667C7.2646 6.66667 6.66764 7.26362 6.66764 8Z" stroke-width="2" stroke-linecap="round" stroke-linejoin="round"></path>
  </symbol>
  <symbol xmlns="http://www.w3.org/2000/svg" viewBox="0 0 24 24" id="user_square">
    <path d="M17 21C17 18.2386 14.7614 16 12 16C9.23858 16 7 18.2386 7 21M17 21L17.8031 21C18.921 21 19.48 21 19.9074 20.7822C20.2837 20.5905 20.5905 20.2837 20.7822 19.9074C21 19.48 21 18.921 21 17.8031L21 6.19691C21 5.07899 21 4.5192 20.7822 4.0918C20.5905 3.71547 20.2837 3.40973 19.9074 3.21799C19.4796 3 18.9203 3 17.8002 3L6.2002 3C5.08009 3 4.51962 3 4.0918 3.21799C3.71547 3.40973 3.40973 3.71547 3.21799 4.0918C3 4.51962 3 5.08009 3 6.2002L3 17.8002C3 18.9203 3 19.4796 3.21799 19.9074C3.40974 20.2837 3.71547 20.5905 4.0918 20.7822C4.5192 21 5.079 21 6.19691 21L7 21M17 21L7 21M12 13C10.3431 13 9 11.6569 9 10C9 8.34315 10.3431 7 12 7C13.6569 7 15 8.34314 15 10C15 11.6569 13.6569 13 12 13Z" stroke-width="2" stroke-linecap="round" stroke-linejoin="round"></path>
  </symbol>
  <symbol xmlns="http://www.w3.org/2000/svg" viewBox="0 0 24 24" id="camera">
    <path d="M9.48898 7L6.2002 7C5.08009 7 4.51962 7 4.0918 7.21799C3.71547 7.40973 3.40973 7.71547 3.21799 8.0918C3 8.51962 3 9.08009 3 10.2002L3 15.8002C3 16.9203 3 17.4796 3.21799 17.9074C3.40973 18.2837 3.71547 18.5905 4.0918 18.7822C4.5192 19 5.07899 19 6.19691 19H17.8031C18.921 19 19.48 19 19.9074 18.7822C20.2837 18.5905 20.5905 18.2837 20.7822 17.9074C21 17.48 21 16.921 21 15.8031V10.1969C21 9.07899 21 8.5192 20.7822 8.0918C20.5905 7.71547 20.2837 7.40973 19.9074 7.21799C19.4796 7 18.9203 7 17.8002 7H14.5108M9.48898 7H9.55078M9.48898 7C9.50151 7.00001 9.51468 7 9.52857 7L9.55078 7M9.48898 7C9.38286 6.99995 9.32339 6.99941 9.27637 6.99414C8.68878 6.92835 8.28578 6.36908 8.40918 5.79084C8.42066 5.73703 8.44336 5.66894 8.4883 5.53412L8.49023 5.52841C8.54156 5.37443 8.56723 5.29743 8.59558 5.22949C8.88586 4.53389 9.54322 4.06083 10.2949 4.00541C10.3683 4 10.449 4 10.6113 4H13.3886C13.5509 4 13.6322 4 13.7057 4.00541C14.4574 4.06083 15.114 4.53389 15.4043 5.22949C15.4326 5.29743 15.4584 5.37434 15.5098 5.52832C15.556 5.66699 15.5791 5.73636 15.5908 5.79093C15.7142 6.36917 15.3118 6.92835 14.7242 6.99414C14.6772 6.99941 14.6171 6.99995 14.5108 7M9.55078 7L14.449 7M14.449 7H14.5108M14.449 7L14.4712 7C14.4851 7 14.4983 7.00001 14.5108 7M12 16C10.3431 16 9 14.6569 9 13C9 11.3431 10.3431 10 12 10C13.6569 10 15 11.3431 15 13C15 14.6569 13.6569 16 12 16Z" stroke-width="2" stroke-linecap="round" stroke-linejoin="round"></path>
  </symbol>
  <symbol xmlns="http://www.w3.org/2000/svg" viewBox="0 0 24 24" id="microphone">
    <path d="M5.94043 13.0215C5.94043 13.0215 5.94034 18.0809 11.9998 18.0809M11.9998 18.0809C18.0592 18.0809 18.0592 13.0215 18.0592 13.0215M11.9998 18.0809V21.0036" stroke-width="2" stroke-linecap="round" stroke-linejoin="round"></path>
    <rect x="8.98828" y="3" width="6.02368" height="11.909" rx="3.01184" stroke-width="2"></rect>
  </symbol>
  <symbol xmlns="http://www.w3.org/2000/svg" viewBox="0 0 24 24" id="add_plus">
    <path d="M8 12L12 12M12 12L16 12M12 12L12 16M12 12L12 8M12 21C7.02944 21 3 16.9706 3 12C3 7.02944 7.02944 3 12 3C16.9706 3 21 7.02944 21 12C21 16.9706 16.9706 21 12 21Z" stroke-width="2" stroke-linecap="round" stroke-linejoin="round"></path>
  </symbol>
  <symbol fill="none" xmlns="http://www.w3.org/2000/svg" viewBox="0 0 24 24" id="heart_notify">
    <path d="M3.85547 5.53029C6.00391 3.38187 9.54253 3.57788 11.4404 5.95021L11.7988 6.39943L12.1582 5.95021C12.6779 5.30065 13.3209 4.81492 14.0244 4.49514C14.0078 4.66115 14 4.82962 14 5.00002C14 5.58036 14.1004 6.13706 14.2822 6.65529C14.0778 6.8088 13.8886 6.99038 13.7207 7.20021L13.7197 7.19924L12.5811 8.62502C12.3913 8.8623 12.1036 8.99995 11.7998 9.00002C11.4961 9.00002 11.2093 8.86212 11.0195 8.62502L9.8789 7.20021L9.87793 7.20021C8.72452 5.7585 6.57491 5.639 5.26953 6.94436C4.10036 8.11355 4.05575 9.9953 5.16797 11.2188L11.7988 18.5127L18.4316 11.2188C18.7603 10.8572 18.9848 10.4373 19.1123 9.99611C19.8703 9.9794 20.5858 9.79464 21.2246 9.47658C21.1504 10.587 20.7147 11.6796 19.9111 12.5635L12.5391 20.6729C12.3495 20.8813 12.0805 21 11.7988 21C11.5173 20.9999 11.249 20.8811 11.0596 20.6729L3.6875 12.5635C1.85751 10.55 1.93155 7.45424 3.85547 5.53029Z" fill="#3486FE"></path>
    <path d="M19 2C17.3431 2 16 3.34315 16 5C16 6.65685 17.3431 8 19 8C20.6569 8 22 6.65685 22 5C22 3.34315 20.6569 2 19 2Z" stroke="#F9329C" stroke-width="2" stroke-linecap="round" stroke-linejoin="round"></path>
  </symbol>
  <symbol xmlns="http://www.w3.org/2000/svg" viewBox="0 0 24 25" id="heart">
    <path d="M19.0371 6.65723C20.5837 8.20388 20.643 10.6926 19.1716 12.3111L11.7993 20.42L4.42792 12.311C2.9566 10.6926 3.01585 8.20382 4.5625 6.65718C6.28941 4.93026 9.13352 5.08806 10.6592 6.99512L11.7998 8.42038L12.9394 6.99496C14.4651 5.0879 17.3102 4.93032 19.0371 6.65723Z" stroke-width="2" stroke-linecap="round" stroke-linejoin="round"></path>
  </symbol>
  <symbol xmlns="http://www.w3.org/2000/svg" viewBox="0 0 16 16" id="hide">
    <path d="M2.66757 2.66797L13.3342 13.3346M11.0009 11.1719C10.0992 11.6576 9.07998 12.0012 8.0009 12.0012C5.64714 12.0012 3.57847 10.3665 2.39218 9.18717C2.07904 8.87587 1.9225 8.72024 1.82284 8.41471C1.75177 8.19682 1.75175 7.80568 1.82284 7.5878C1.92253 7.28228 2.0794 7.12627 2.39316 6.81441C2.99108 6.22011 3.81298 5.51036 4.78244 4.95247M13.0009 9.75694C13.2229 9.56166 13.4263 9.36953 13.6088 9.18815L13.6107 9.18612C13.9231 8.87558 14.0798 8.71989 14.1792 8.41504C14.2503 8.19716 14.2502 7.80586 14.1791 7.58797C14.0795 7.28255 13.9227 7.12647 13.6098 6.81537C12.4235 5.63602 10.3547 4.0013 8.0009 4.0013C7.7759 4.0013 7.55351 4.01624 7.33424 4.04429M8.88285 9.0013C8.6478 9.20876 8.33905 9.33464 8.0009 9.33464C7.26452 9.33464 6.66757 8.73768 6.66757 8.0013C6.66757 7.64163 6.80998 7.31535 7.04149 7.07552" stroke-width="2" stroke-linecap="round" stroke-linejoin="round"></path>
  </symbol>
  <symbol xmlns="http://www.w3.org/2000/svg" viewBox="0 0 24 24" id="arrow-up-left">
    <path d="M17 17L7 7M7 7V15M7 7H15" stroke-width="2" stroke-linecap="round" stroke-linejoin="round"></path>
  </symbol>
  <symbol xmlns="http://www.w3.org/2000/svg" viewBox="0 0 24 24" id="arrow-prev">
    <path d="M19 12L5 12M5 12L11 18M5 12L11 6" stroke-width="2" stroke-linecap="round" stroke-linejoin="round"></path>
  </symbol>
  <symbol xmlns="http://www.w3.org/2000/svg" viewBox="0 0 25 24" id="arrow-right">
    <path d="M5.40039 12L19.4004 12M19.4004 12L13.4004 6M19.4004 12L13.4004 18" stroke-width="2" stroke-linecap="round" stroke-linejoin="round"></path>
  </symbol>
</svg>