<svg width="0" height="0" class="hidden">
  <symbol xmlns="http://www.w3.org/2000/svg" viewBox="0 0 24 25" id="arrow-next">
    <path d="M3.99984 11.4679V13.4679H15.9998L10.4998 18.9679L11.9198 20.3879L19.8398 12.4679L11.9198 4.54785L10.4998 5.96785L15.9998 11.4679H3.99984Z"></path>
  </symbol>
  <symbol xmlns="http://www.w3.org/2000/svg" viewBox="0 0 16 15" id="arrow-prev">
    <path d="M15 7.46777H1M1 7.46777L7 13.4678M1 7.46777L7 1.46777" stroke-width="2" stroke-linecap="round" stroke-linejoin="round"></path>
  </symbol>
  <symbol xmlns="http://www.w3.org/2000/svg" viewBox="0 0 24 24" id="user_square">
    <path d="M17 21C17 18.2386 14.7614 16 12 16C9.23858 16 7 18.2386 7 21M17 21L17.8031 21C18.921 21 19.48 21 19.9074 20.7822C20.2837 20.5905 20.5905 20.2837 20.7822 19.9074C21 19.48 21 18.921 21 17.8031L21 6.19691C21 5.07899 21 4.5192 20.7822 4.0918C20.5905 3.71547 20.2837 3.40973 19.9074 3.21799C19.4796 3 18.9203 3 17.8002 3L6.2002 3C5.08009 3 4.51962 3 4.0918 3.21799C3.71547 3.40973 3.40973 3.71547 3.21799 4.0918C3 4.51962 3 5.08009 3 6.2002L3 17.8002C3 18.9203 3 19.4796 3.21799 19.9074C3.40974 20.2837 3.71547 20.5905 4.0918 20.7822C4.5192 21 5.079 21 6.19691 21L7 21M17 21L7 21M12 13C10.3431 13 9 11.6569 9 10C9 8.34315 10.3431 7 12 7C13.6569 7 15 8.34314 15 10C15 11.6569 13.6569 13 12 13Z" stroke-width="2" stroke-linecap="round" stroke-linejoin="round"></path>
  </symbol>
  <symbol xmlns="http://www.w3.org/2000/svg" viewBox="0 0 24 24" id="add_plus">
    <path d="M8 12L12 12M12 12L16 12M12 12L12 16M12 12L12 8M12 21C7.02944 21 3 16.9706 3 12C3 7.02944 7.02944 3 12 3C16.9706 3 21 7.02944 21 12C21 16.9706 16.9706 21 12 21Z" stroke-width="2" stroke-linecap="round" stroke-linejoin="round"></path>
  </symbol>
  <symbol xmlns="http://www.w3.org/2000/svg" viewBox="0 0 20 18" id="heart">
    <path d="M17.0371 2.73731C18.5837 4.28395 18.643 6.77268 17.1716 8.39114L9.79929 16.5001L2.42792 8.39111C0.956598 6.77265 1.01585 4.2839 2.5625 2.73726C4.28941 1.01034 7.13352 1.16814 8.65917 3.0752L9.7998 4.50045L10.9394 3.07504C12.4651 1.16798 15.3102 1.01039 17.0371 2.73731Z" stroke-width="2" stroke-linecap="round" stroke-linejoin="round"></path>
  </symbol>
  <symbol xmlns="http://www.w3.org/2000/svg" viewBox="0 0 24 24" id="chat">
    <path d="M5.59961 19.9203L7.12357 18.7012L7.13478 18.6926C7.45249 18.4384 7.61281 18.3101 7.79168 18.2188C7.95216 18.1368 8.12328 18.0771 8.2998 18.0408C8.49877 18 8.70603 18 9.12207 18H17.8031C18.921 18 19.4806 18 19.908 17.7822C20.2843 17.5905 20.5905 17.2842 20.7822 16.9079C21 16.4805 21 15.9215 21 14.8036V7.19691C21 6.07899 21 5.5192 20.7822 5.0918C20.5905 4.71547 20.2837 4.40973 19.9074 4.21799C19.4796 4 18.9203 4 17.8002 4H6.2002C5.08009 4 4.51962 4 4.0918 4.21799C3.71547 4.40973 3.40973 4.71547 3.21799 5.0918C3 5.51962 3 6.08009 3 7.2002V18.6712C3 19.7369 3 20.2696 3.21846 20.5433C3.40845 20.7813 3.69644 20.9198 4.00098 20.9195C4.35115 20.9191 4.76744 20.5861 5.59961 19.9203Z" stroke-width="2" stroke-linecap="round" stroke-linejoin="round"></path>
  </symbol>
  <symbol xmlns="http://www.w3.org/2000/svg" viewBox="0 0 24 24" id="show">
    <path d="M3.58631 13.7788C5.36575 15.5478 8.46904 17.9999 11.9997 17.9999C15.5303 17.9999 18.6331 15.5478 20.4125 13.7788C20.8818 13.3123 21.1172 13.0782 21.2667 12.6201C21.3733 12.2933 21.3733 11.7067 21.2667 11.3799C21.1172 10.9218 20.8818 10.6877 20.4125 10.2211C18.633 8.45208 15.5303 6 11.9997 6C8.46904 6 5.36575 8.45208 3.58631 10.2211C3.11665 10.688 2.8818 10.9216 2.73231 11.3799C2.62569 11.7067 2.62569 12.2933 2.73231 12.6201C2.8818 13.0784 3.11665 13.3119 3.58631 13.7788Z" stroke-width="2" stroke-linecap="round" stroke-linejoin="round"></path>
    <path d="M9.99951 12C9.99951 13.1046 10.8949 14 11.9995 14C13.1041 14 13.9995 13.1046 13.9995 12C13.9995 10.8954 13.1041 10 11.9995 10C10.8949 10 9.99951 10.8954 9.99951 12Z" stroke-width="2" stroke-linecap="round" stroke-linejoin="round"></path>
  </symbol>
  <symbol xmlns="http://www.w3.org/2000/svg" viewBox="0 0 24 24" id="suitcase">
    <path d="M8 8H6.2002C5.08009 8 4.51962 8 4.0918 8.21799C3.71547 8.40973 3.40973 8.71547 3.21799 9.0918C3 9.51962 3 10.0801 3 11.2002V16.8002C3 17.9203 3 18.4801 3.21799 18.9079C3.40973 19.2842 3.71547 19.5905 4.0918 19.7822C4.5192 20 5.07899 20 6.19691 20H17.8031C18.921 20 19.48 20 19.9074 19.7822C20.2837 19.5905 20.5905 19.2842 20.7822 18.9079C21 18.4805 21 17.9215 21 16.8036V11.1969C21 10.079 21 9.5192 20.7822 9.0918C20.5905 8.71547 20.2837 8.40973 19.9074 8.21799C19.4796 8 18.9203 8 17.8002 8H16M8 8H16M8 8C8 5.79086 9.79086 4 12 4C14.2091 4 16 5.79086 16 8" stroke-width="2" stroke-linecap="round" stroke-linejoin="round"></path>
  </symbol>
  <symbol xmlns="http://www.w3.org/2000/svg" viewBox="0 0 24 25" id="expand">
    <path d="M10 19.7748H5V14.7748M14 5.77478H19V10.7748" stroke-width="2" stroke-linecap="round" stroke-linejoin="round"></path>
  </symbol>
  <symbol xmlns="http://www.w3.org/2000/svg" viewBox="0 0 18 18" id="note">
    <path d="M10 16.9991C9.90511 17 9.79863 17 9.67703 17H4.19691C3.07899 17 2.5192 17 2.0918 16.7822C1.71547 16.5905 1.40973 16.2842 1.21799 15.9079C1 15.4801 1 14.9203 1 13.8002V4.2002C1 3.08009 1 2.51962 1.21799 2.0918C1.40973 1.71547 1.71547 1.40973 2.0918 1.21799C2.51962 1 3.08009 1 4.2002 1H13.8002C14.9203 1 15.4796 1 15.9074 1.21799C16.2837 1.40973 16.5905 1.71547 16.7822 2.0918C17 2.5192 17 3.07899 17 4.19691V9.67471C17 9.79731 17 9.90453 16.9991 10M10 16.9991C10.2857 16.9966 10.4663 16.9862 10.6388 16.9448C10.8429 16.8958 11.0379 16.8147 11.2168 16.705C11.4186 16.5814 11.5916 16.4089 11.9375 16.063L16.063 11.9375C16.4089 11.5916 16.5809 11.4186 16.7046 11.2168C16.8142 11.0379 16.8953 10.8424 16.9443 10.6384C16.9857 10.4659 16.9964 10.2855 16.9991 10M10 16.9991V11.6001C10 11.04 10 10.7598 10.109 10.5459C10.2049 10.3577 10.3577 10.2049 10.5459 10.109C10.7598 10 11.0396 10 11.5996 10H16.9991"  stroke-width="2" stroke-linecap="round" stroke-linejoin="round"></path>
  </symbol>
  <symbol xmlns="http://www.w3.org/2000/svg" viewBox="0 0 14 15" id="close">
    <path d="M13 13.5L7.00002 7.50002M7.00002 7.50002L1 1.5M7.00002 7.50002L13 1.5M7.00002 7.50002L1 13.5"  stroke-width="2" stroke-linecap="round" stroke-linejoin="round"></path>
  </symbol>
  <symbol xmlns="http://www.w3.org/2000/svg" viewBox="0 0 17 16" id="edit-pencil">
    <path d="M8.49935 5.33357L3.16602 10.6669V13.3336L5.83268 13.3336L11.166 8.00023M8.49935 5.33357L10.4118 3.42114L10.4129 3.42C10.6762 3.15675 10.808 3.02489 10.96 2.9755C11.0939 2.93199 11.2382 2.93199 11.3721 2.9755C11.524 3.02485 11.6557 3.15656 11.9186 3.41945L13.0784 4.57931C13.3424 4.84332 13.4745 4.97539 13.524 5.12761C13.5675 5.2615 13.5674 5.40573 13.5239 5.53963C13.4745 5.69174 13.3427 5.8236 13.079 6.08724L13.0784 6.0878L11.166 8.00023M8.49935 5.33357L11.166 8.00023" stroke-width="2" stroke-linecap="round" stroke-linejoin="round"></path>
  </symbol>
  <symbol xmlns="http://www.w3.org/2000/svg" viewBox="0 0 64 64" id="hide">
    <path d="M10.6664 10.6666L53.333 53.3333M43.9997 44.6822C40.3928 46.6253 36.316 47.9996 31.9997 47.9996C22.5846 47.9996 14.31 41.4608 9.56481 36.7434C8.31227 35.4982 7.6861 34.8757 7.28747 33.6536C7.00318 32.782 7.00309 31.2175 7.28747 30.3459C7.68622 29.1239 8.31369 28.4998 9.56872 27.2524C11.9604 24.8752 15.248 22.0362 19.1258 19.8046M51.9997 39.0225C52.8878 38.2414 53.7012 37.4729 54.4312 36.7474L54.4389 36.7392C55.6886 35.4971 56.3152 34.8743 56.7131 33.6549C56.9974 32.7834 56.9968 31.2182 56.7126 30.3466C56.3141 29.1249 55.6871 28.5006 54.4354 27.2562C49.6902 22.5388 41.4148 16 31.9997 16C31.0997 16 30.2101 16.0597 29.333 16.1719M35.5275 36C34.5873 36.8298 33.3523 37.3333 31.9997 37.3333C29.0542 37.3333 26.6664 34.9455 26.6664 32C26.6664 30.5613 27.236 29.2562 28.1621 28.2968" stroke-width="4" stroke-linecap="round" stroke-linejoin="round"></path>
  </symbol>
  <symbol xmlns="http://www.w3.org/2000/svg" viewBox="0 0 17 16" id="show">
    <path d="M2.72421 9.18587C3.9105 10.3652 5.97936 11.9999 8.33313 11.9999C10.6869 11.9999 12.7554 10.3652 13.9417 9.18587C14.2545 8.87484 14.4115 8.71879 14.5111 8.41341C14.5822 8.19552 14.5822 7.80449 14.5111 7.5866C14.4115 7.28121 14.2545 7.12513 13.9417 6.81407C12.7554 5.63472 10.6869 4 8.33313 4C5.97936 4 3.9105 5.63472 2.72421 6.81407C2.4111 7.12535 2.25453 7.2811 2.15487 7.5866C2.08379 7.80449 2.08379 8.19552 2.15487 8.41341C2.25453 8.71891 2.4111 8.87459 2.72421 9.18587Z" stroke-width="2" stroke-linecap="round" stroke-linejoin="round"></path>
    <path d="M6.99967 8C6.99967 8.73638 7.59663 9.33333 8.33301 9.33333C9.06939 9.33333 9.66634 8.73638 9.66634 8C9.66634 7.26362 9.06939 6.66667 8.33301 6.66667C7.59663 6.66667 6.99967 7.26362 6.99967 8Z" stroke-width="2" stroke-linecap="round" stroke-linejoin="round"></path>
  </symbol>
  <symbol xmlns="http://www.w3.org/2000/svg" viewBox="0 0 17 16" id="arrow-circle-up">
    <path d="M10.5 7.33333L8.5 5.33333M8.5 5.33333L6.5 7.33333M8.5 5.33333V10.6667M14.5 8C14.5 4.68629 11.8137 2 8.5 2C5.18629 2 2.5 4.68629 2.5 8C2.5 11.3137 5.18629 14 8.5 14C11.8137 14 14.5 11.3137 14.5 8Z" stroke-width="2" stroke-linecap="round" stroke-linejoin="round"></path>
  </symbol>
  <symbol xmlns="http://www.w3.org/2000/svg" viewBox="0 0 24 24" id="plus">
    <path d="M6 12H12M12 12H18M12 12V18M12 12V6" stroke-width="2" stroke-linecap="round" stroke-linejoin="round"></path>
  </symbol>
  <symbol xmlns="http://www.w3.org/2000/svg" viewBox="0 0 24 24" id="microphone">
    <path d="M5.94067 13.022C5.94067 13.022 5.94059 18.0814 12 18.0814M12 18.0814C18.0594 18.0814 18.0594 13.022 18.0594 13.022M12 18.0814V21.0041" stroke-width="2" stroke-linecap="round" stroke-linejoin="round"></path>
    <rect x="8.98828" y="3" width="6.02368" height="11.909" rx="3.01184" stroke-width="2"></rect>
  </symbol>
  <symbol xmlns="http://www.w3.org/2000/svg" viewBox="0 0 32 32" id="camera">
    <path d="M12.652 9.3335H8.26693C6.77345 9.3335 6.02616 9.3335 5.45573 9.62415C4.95396 9.87981 4.54631 10.2875 4.29065 10.7892C4 11.3597 4 12.107 4 13.6004V21.0671C4 22.5606 4 23.3063 4.29065 23.8767C4.54631 24.3785 4.95396 24.7875 5.45573 25.0431C6.0256 25.3335 6.77199 25.3335 8.26255 25.3335H23.7375C25.228 25.3335 25.9733 25.3335 26.5432 25.0431C27.045 24.7875 27.454 24.3785 27.7096 23.8767C28 23.3068 28 22.5615 28 21.071V13.596C28 12.1055 28 11.3591 27.7096 10.7892C27.454 10.2875 27.045 9.87981 26.5432 9.62415C25.9728 9.3335 25.2271 9.3335 23.7336 9.3335H19.3478M12.652 9.3335H12.7344M12.652 9.3335C12.6687 9.3335 12.6862 9.3335 12.7048 9.3335L12.7344 9.3335M12.652 9.3335C12.5105 9.33344 12.4312 9.3327 12.3685 9.32568C11.585 9.23797 11.0477 8.49226 11.2122 7.72128C11.2276 7.64953 11.2578 7.55875 11.3177 7.37899L11.3203 7.37138C11.3888 7.16607 11.423 7.06341 11.4608 6.97282C11.8478 6.04535 12.7243 5.4146 13.7266 5.34071C13.8245 5.3335 13.932 5.3335 14.1484 5.3335H17.8514C18.0679 5.3335 18.1763 5.3335 18.2742 5.34071C19.2765 5.4146 20.152 6.04535 20.5391 6.97282C20.5769 7.06341 20.6113 7.16595 20.6797 7.37126C20.7413 7.55615 20.7721 7.64864 20.7877 7.72141C20.9522 8.49239 20.4157 9.23797 19.6323 9.32568C19.5696 9.3327 19.4895 9.33344 19.3478 9.3335M12.7344 9.3335H19.2653M19.2653 9.3335H19.3478M19.2653 9.3335L19.2949 9.3335C19.3134 9.3335 19.331 9.3335 19.3478 9.3335M16 21.3335C13.7909 21.3335 12 19.5426 12 17.3335C12 15.1244 13.7909 13.3335 16 13.3335C18.2091 13.3335 20 15.1244 20 17.3335C20 19.5426 18.2091 21.3335 16 21.3335Z" stroke-width="2" stroke-linecap="round" stroke-linejoin="round"></path>
  </symbol>
  <symbol xmlns="http://www.w3.org/2000/svg" viewBox="0 0 16 16" id="star">
    <path d="M2.20215 7.00201C2.0142 6.8282 2.11629 6.51399 2.37051 6.48385L5.97266 6.05659C6.07627 6.04431 6.16626 5.97924 6.20996 5.8845L7.7293 2.59063C7.83652 2.35817 8.16699 2.35812 8.27422 2.59058L9.79355 5.88443C9.83726 5.97917 9.92666 6.04441 10.0303 6.0567L13.6326 6.48385C13.8868 6.51399 13.9886 6.8283 13.8007 7.00211L11.1378 9.46509C11.0612 9.53593 11.0271 9.64137 11.0475 9.74371L11.7542 13.3015C11.8041 13.5526 11.5368 13.7472 11.3135 13.6221L8.14826 11.8499C8.05722 11.799 7.94661 11.7992 7.85557 11.8502L4.69003 13.6217C4.46665 13.7467 4.19894 13.5526 4.24883 13.3015L4.95566 9.74393C4.97599 9.6416 4.94197 9.53591 4.86537 9.46507L2.20215 7.00201Z" stroke-width="2" stroke-linecap="round" stroke-linejoin="round"></path>
  </symbol>
  <symbol xmlns="http://www.w3.org/2000/svg" viewBox="0 0 24 25" id="trash">
    <path d="M6 6.6123V18.4123C6 19.5324 6 20.0921 6.21799 20.5199C6.40973 20.8962 6.71547 21.2028 7.0918 21.3945C7.5192 21.6123 8.07899 21.6123 9.19691 21.6123H14.8031C15.921 21.6123 16.48 21.6123 16.9074 21.3945C17.2837 21.2028 17.5905 20.8962 17.7822 20.5199C18 20.0925 18 19.5333 18 18.4154V6.6123M6 6.6123H8M6 6.6123H4M8 6.6123H16M8 6.6123C8 5.68042 8 5.21471 8.15224 4.84717C8.35523 4.35711 8.74432 3.96753 9.23438 3.76455C9.60192 3.6123 10.0681 3.6123 11 3.6123H13C13.9319 3.6123 14.3978 3.6123 14.7654 3.76455C15.2554 3.96753 15.6447 4.35711 15.8477 4.84717C15.9999 5.21471 16 5.68042 16 6.6123M16 6.6123H18M18 6.6123H20" stroke-width="2" stroke-linecap="round" stroke-linejoin="round"></path>
  </symbol>
  <symbol xmlns="http://www.w3.org/2000/svg" viewBox="0 0 20 20" id="note-edit">
    <path d="M7.0002 3H4.2002C3.08009 3 2.51962 3 2.0918 3.21799C1.71547 3.40973 1.40973 3.71547 1.21799 4.0918C1 4.51962 1 5.08009 1 6.2002V15.8002C1 16.9203 1 17.4801 1.21799 17.9079C1.40973 18.2842 1.71547 18.5905 2.0918 18.7822C2.5192 19 3.07899 19 4.19691 19H13.8031C14.921 19 15.48 19 15.9074 18.7822C16.2837 18.5905 16.5905 18.2839 16.7822 17.9076C17 17.4802 17 16.921 17 15.8031V13M13 4L7 10V13H10L16 7M13 4L16 1L19 4L16 7M13 4L16 7" stroke-width="2" stroke-linecap="round" stroke-linejoin="round"></path>
  </symbol>
  <symbol xmlns="http://www.w3.org/2000/svg" viewBox="0 0 13 12" id="arrow-up-left">
    <path d="M11.5 11L1.5 1M1.5 1V9M1.5 1H9.5" stroke-width="2" stroke-linecap="round" stroke-linejoin="round"></path>
  </symbol>
  <symbol xmlns="http://www.w3.org/2000/svg" viewBox="0 0 20 14" id="user-card">
    <path d="M4 13C4.06366 13 4.12926 13 4.19691 13H10M4 13C3.01173 12.9992 2.49334 12.9868 2.0918 12.7822C1.71547 12.5905 1.40973 12.2837 1.21799 11.9074C1 11.4796 1 10.9203 1 9.8002V4.2002C1 3.08009 1 2.51962 1.21799 2.0918C1.40973 1.71547 1.71547 1.40973 2.0918 1.21799C2.51962 1 3.08009 1 4.2002 1H15.8002C16.9203 1 17.4796 1 17.9074 1.21799C18.2837 1.40973 18.5905 1.71547 18.7822 2.0918C19 2.5192 19 3.07899 19 4.19691V9.80309C19 10.921 19 11.48 18.7822 11.9074C18.5905 12.2837 18.2837 12.5905 17.9074 12.7822C17.48 13 16.921 13 15.8031 13H10M4 13C4.00004 11.8954 5.34317 11 7 11C8.65685 11 10 11.8954 10 13M4 13C4 13 4 12.9999 4 13ZM16 9H12M16 6H13M7 8C5.89543 8 5 7.10457 5 6C5 4.89543 5.89543 4 7 4C8.10457 4 9 4.89543 9 6C9 7.10457 8.10457 8 7 8Z" stroke-width="2" stroke-linecap="round" stroke-linejoin="round"></path>
  </symbol>
  <symbol xmlns="http://www.w3.org/2000/svg" viewBox="0 0 24 24" id="arrow-down-select">
    <path d="M16 10L12 14L8 10" stroke-width="2" stroke-linecap="round" stroke-linejoin="round"></path>
  </symbol>
  <symbol xmlns="http://www.w3.org/2000/svg" viewBox="0 0 24 25" id="switch-right">
    <path d="M8 18.4199H16C19.3137 18.4199 22 15.7336 22 12.4199C22 9.10621 19.3137 6.41992 16 6.41992H8C4.68629 6.41992 2 9.10621 2 12.4199C2 15.7336 4.68629 18.4199 8 18.4199Z" stroke-width="2" stroke-linecap="round" stroke-linejoin="round"></path>
    <path d="M16 9.41992C14.3431 9.41992 13 10.7631 13 12.4199C13 14.0768 14.3431 15.4199 16 15.4199C17.6569 15.4199 19 14.0768 19 12.4199C19 10.7631 17.6569 9.41992 16 9.41992Z" stroke-width="2" stroke-linecap="round" stroke-linejoin="round"></path>
  </symbol>
  <symbol xmlns="http://www.w3.org/2000/svg" viewBox="0 0 24 25" id="switch-left">
    <path d="M8 18.4199H16C19.3137 18.4199 22 15.7336 22 12.4199C22 9.10621 19.3137 6.41992 16 6.41992H8C4.68629 6.41992 2 9.10621 2 12.4199C2 15.7336 4.68629 18.4199 8 18.4199Z" stroke-width="2" stroke-linecap="round" stroke-linejoin="round"></path>
    <path d="M8 9.41992C6.34315 9.41992 5 10.7631 5 12.4199C5 14.0768 6.34315 15.4199 8 15.4199C9.65685 15.4199 11 14.0768 11 12.4199C11 10.7631 9.65685 9.41992 8 9.41992Z" stroke-width="2" stroke-linecap="round" stroke-linejoin="round"></path>
  </symbol>
  <symbol xmlns="http://www.w3.org/2000/svg" viewBox="0 0 24 24" id="globe">
    <path d="M3 12L8 12M3 12C3 16.9706 7.02944 21 12 21M3 12C3 7.02944 7.02944 3 12 3M8 12L16 12M8 12C8 16.9706 9.79086 21 12 21M8 12C8 7.02944 9.79086 3 12 3M16 12L21 12M16 12C16 7.02944 14.2091 3 12 3M16 12C16 16.9706 14.2091 21 12 21M21 12C21 7.02944 16.9706 3 12 3M21 12C21 16.9706 16.9706 21 12 21" stroke-width="2" stroke-linecap="round" stroke-linejoin="round"></path>
  </symbol>
  <symbol xmlns="http://www.w3.org/2000/svg" viewBox="0 0 24 25" id="search-glass">
    <path d="M15 15.4199L21 21.4199M10 17.4199C6.13401 17.4199 3 14.2859 3 10.4199C3 6.55393 6.13401 3.41992 10 3.41992C13.866 3.41992 17 6.55393 17 10.4199C17 14.2859 13.866 17.4199 10 17.4199Z" stroke-width="2" stroke-linecap="round" stroke-linejoin="round"></path>
  </symbol>
  <symbol fill="none" xmlns="http://www.w3.org/2000/svg" viewBox="0 0 8 8" id="arrow-drop-down">
    <path d="M5.71967 0.700251L0.28033 6.13959C-0.192143 6.61207 0.142482 7.41992 0.81066 7.41992H5.5C6.32843 7.41992 7 6.74835 7 5.91992V1.23058C7 0.562403 6.19214 0.227777 5.71967 0.700251Z" fill="#3486FE"></path>
  </symbol>
  <symbol xmlns="http://www.w3.org/2000/svg" viewBox="0 0 16 15" id="arrow-right">
    <path d="M1 7.41992L15 7.41992M15 7.41992L9 1.41992M15 7.41992L9 13.4199" stroke-width="2" stroke-linecap="round" stroke-linejoin="round"></path>
  </symbol>
  <symbol xmlns="http://www.w3.org/2000/svg" viewBox="0 0 24 24" id="check">
    <path d="M6 12L10.2426 16.2426L18.727 7.75732" stroke-width="2" stroke-linecap="round" stroke-linejoin="round"></path>
  </symbol>
</svg>