<svg width="0" height="0" class="hidden">
  <symbol xmlns="http://www.w3.org/2000/svg" viewBox="0 0 24 25" id="arrow-next">
    <path d="M3.99984 11.4679V13.4679H15.9998L10.4998 18.9679L11.9198 20.3879L19.8398 12.4679L11.9198 4.54785L10.4998 5.96785L15.9998 11.4679H3.99984Z"></path>
  </symbol>
  <symbol xmlns="http://www.w3.org/2000/svg" viewBox="0 0 16 15" id="arrow-prev">
    <path d="M15 7.46777H1M1 7.46777L7 13.4678M1 7.46777L7 1.46777" stroke-width="2" stroke-linecap="round" stroke-linejoin="round"></path>
  </symbol>
  <symbol xmlns="http://www.w3.org/2000/svg" viewBox="0 0 24 24" id="user_square">
    <path d="M17 21C17 18.2386 14.7614 16 12 16C9.23858 16 7 18.2386 7 21M17 21L17.8031 21C18.921 21 19.48 21 19.9074 20.7822C20.2837 20.5905 20.5905 20.2837 20.7822 19.9074C21 19.48 21 18.921 21 17.8031L21 6.19691C21 5.07899 21 4.5192 20.7822 4.0918C20.5905 3.71547 20.2837 3.40973 19.9074 3.21799C19.4796 3 18.9203 3 17.8002 3L6.2002 3C5.08009 3 4.51962 3 4.0918 3.21799C3.71547 3.40973 3.40973 3.71547 3.21799 4.0918C3 4.51962 3 5.08009 3 6.2002L3 17.8002C3 18.9203 3 19.4796 3.21799 19.9074C3.40974 20.2837 3.71547 20.5905 4.0918 20.7822C4.5192 21 5.079 21 6.19691 21L7 21M17 21L7 21M12 13C10.3431 13 9 11.6569 9 10C9 8.34315 10.3431 7 12 7C13.6569 7 15 8.34314 15 10C15 11.6569 13.6569 13 12 13Z" stroke-width="2" stroke-linecap="round" stroke-linejoin="round"></path>
  </symbol>
  <symbol xmlns="http://www.w3.org/2000/svg" viewBox="0 0 24 24" id="add_plus">
    <path d="M8 12L12 12M12 12L16 12M12 12L12 16M12 12L12 8M12 21C7.02944 21 3 16.9706 3 12C3 7.02944 7.02944 3 12 3C16.9706 3 21 7.02944 21 12C21 16.9706 16.9706 21 12 21Z" stroke-width="2" stroke-linecap="round" stroke-linejoin="round"></path>
  </symbol>
  <svg width="0" height="0" class="hidden">
  <symbol xmlns="http://www.w3.org/2000/svg" viewBox="0 0 20 18" id="heart">
    <path d="M17.0371 2.73731C18.5837 4.28395 18.643 6.77268 17.1716 8.39114L9.79929 16.5001L2.42792 8.39111C0.956598 6.77265 1.01585 4.2839 2.5625 2.73726C4.28941 1.01034 7.13352 1.16814 8.65917 3.0752L9.7998 4.50045L10.9394 3.07504C12.4651 1.16798 15.3102 1.01039 17.0371 2.73731Z" stroke-width="2" stroke-linecap="round" stroke-linejoin="round"></path>
  </symbol>
</svg>
</svg>