<svg width="48" height="32" viewBox="0 0 48 32" fill="none" xmlns="http://www.w3.org/2000/svg">
<path fill-rule="evenodd" clip-rule="evenodd" d="M16.3999 2.048H31.7599C37.6375 2.048 42.6662 5.68247 44.7213 10.8266C43.6912 10.238 42.3388 9.8552 40.5795 9.8552C38.7021 9.8552 37.3088 10.6522 36.1551 11.7317C35.3269 12.5067 34.561 13.4937 33.8204 14.4481C33.5799 14.7579 33.3421 15.0644 33.1056 15.3592C32.0999 16.6125 31.0299 17.7835 29.6333 18.6506C28.2548 19.5065 26.5074 20.0968 24.1075 20.0968C21.7076 20.0968 19.9602 19.5065 18.5817 18.6506C17.185 17.7835 16.115 16.6125 15.1093 15.3592C14.8726 15.0642 14.6347 14.7575 14.394 14.4474C13.6534 13.493 12.888 12.5067 12.0598 11.7317C10.9061 10.6522 9.51279 9.8552 7.63541 9.8552C5.835 9.8552 4.46082 10.2561 3.42197 10.8682C5.46648 5.70207 10.5065 2.048 16.3999 2.048ZM31.7599 0C40.4739 0 47.5609 6.96613 47.7558 15.6333C47.7578 15.6537 47.7595 15.6733 47.7612 15.6921C47.7686 15.7787 47.7726 15.8493 47.7747 15.9014C47.7754 15.9189 47.7759 15.9343 47.7762 15.9476C47.7764 15.954 47.7765 15.96 47.7766 15.9654L47.7768 15.9794L47.7769 15.9865L47.777 15.9942L47.777 15.9974V15.9987C47.777 15.9987 47.777 15.9998 47.7599 16C47.7599 24.8366 40.5965 32 31.7599 32H16.3999C7.56334 32 0.399902 24.8366 0.399902 16C0.399902 7.16344 7.56335 0 16.3999 0H31.7599ZM45.6526 15.4016C45.6808 15.5417 45.6986 15.6638 45.7099 15.7612C45.7112 15.8406 45.7119 15.9202 45.7119 16C45.7119 23.7055 39.4654 29.952 31.7599 29.952H16.3999C8.69463 29.952 2.44823 23.7058 2.4479 16.0006C2.48593 16.0008 2.48593 16.0012 2.48593 16.0012L2.48593 16.0022L2.48592 16.0039L2.48593 16.0052L2.48661 15.9836C2.48754 15.9607 2.48961 15.9213 2.49421 15.8678C2.50345 15.7606 2.52267 15.599 2.56233 15.4016C2.64239 15.0031 2.80114 14.4816 3.11061 13.9682C3.68974 13.0075 4.89334 11.9032 7.63541 11.9032C8.84478 11.9032 9.76191 12.3864 10.6605 13.2272C11.3596 13.8812 11.9795 14.6795 12.6886 15.5927C12.9483 15.9271 13.22 16.277 13.512 16.6408C14.5607 17.9479 15.8052 19.3374 17.5014 20.3905C19.2157 21.4549 21.3396 22.1448 24.1075 22.1448C26.8754 22.1448 28.9992 21.4549 30.7135 20.3905C32.4098 19.3374 33.6543 17.9479 34.703 16.6408C34.9949 16.2771 35.2665 15.9272 35.5262 15.5928C36.2354 14.6796 36.8554 13.8812 37.5544 13.2272C38.453 12.3864 39.3702 11.9032 40.5795 11.9032C43.3216 11.9032 44.5252 13.0075 45.1043 13.9682C45.4138 14.4816 45.5725 15.0031 45.6526 15.4016Z" fill="#4F4F4F"/>
</svg>
