<svg width="150" height="48" viewBox="0 0 150 48" fill="none" xmlns="http://www.w3.org/2000/svg">
<path fill-rule="evenodd" clip-rule="evenodd" d="M24.0007 3.072H47.0407C55.8571 3.072 63.4003 8.5237 66.4828 16.2399C64.9376 15.357 62.9091 14.7828 60.2702 14.7828C57.4541 14.7828 55.3642 15.9784 53.6336 17.5976C52.3912 18.76 51.2424 20.2405 50.1314 21.6721C49.7708 22.1369 49.414 22.5966 49.0593 23.0387C47.5508 24.9188 45.9457 26.6752 43.8508 27.9759C41.783 29.2597 39.1619 30.1452 35.5621 30.1452C31.9622 30.1452 29.3411 29.2597 27.2734 27.9759C25.1784 26.6752 23.5734 24.9188 22.0649 23.0387C21.7098 22.5963 21.3529 22.1362 20.9919 21.6711L20.9919 21.6711C19.881 20.2394 18.7329 18.76 17.4906 17.5976C15.76 15.9784 13.6701 14.7828 10.854 14.7828C8.15338 14.7828 6.09211 15.3841 4.53383 16.3023C7.6006 8.5531 15.1606 3.072 24.0007 3.072ZM47.0407 0C60.1117 0 70.7422 10.4492 71.0346 23.45C71.0375 23.4805 71.0402 23.5099 71.0426 23.5382C71.0538 23.668 71.0597 23.774 71.0629 23.8521C71.0639 23.8783 71.0647 23.9015 71.0652 23.9213C71.0654 23.9311 71.0656 23.94 71.0658 23.9481L71.0661 23.9692L71.0663 23.9797L71.0664 23.9913L71.0664 23.996V23.9981C71.0664 23.9981 71.0664 23.9998 71.0407 24C71.0407 37.2548 60.2956 48 47.0407 48H24.0007C10.7459 48 0.000732422 37.2548 0.000732422 24C0.000732422 10.7452 10.7459 0 24.0007 0H47.0407ZM67.8798 23.1024C67.922 23.3125 67.9488 23.4956 67.9657 23.6417C67.9677 23.7609 67.9687 23.8803 67.9687 24C67.9687 35.5582 58.5989 44.928 47.0407 44.928H24.0007C12.4428 44.928 3.07322 35.5587 3.07273 24.0009C3.12978 24.0012 3.12978 24.0017 3.12978 24.0017L3.12977 24.0033L3.12977 24.0059L3.12977 24.0078L3.1308 23.9754C3.13218 23.941 3.1353 23.8819 3.1422 23.8017C3.15605 23.6409 3.18488 23.3985 3.24437 23.1024C3.36446 22.5047 3.60259 21.7225 4.06679 20.9524C4.93548 19.5112 6.74089 17.8548 10.854 17.8548C12.668 17.8548 14.0437 18.5795 15.3917 19.8408C16.4402 20.8219 17.3701 22.0193 18.4338 23.389C18.8234 23.8907 19.2309 24.4155 19.6688 24.9613C21.2419 26.9218 23.1086 29.006 25.653 30.5858C28.2245 32.1824 31.4102 33.2172 35.5621 33.2172C39.7139 33.2172 42.8997 32.1824 45.4712 30.5858C48.0155 29.006 49.8823 26.9218 51.4553 24.9613C51.8932 24.4156 52.3007 23.8908 52.6902 23.3892L52.6904 23.3889C53.7541 22.0192 54.6839 20.8219 55.7325 19.8408C57.0804 18.5795 58.4561 17.8548 60.2702 17.8548C64.3833 17.8548 66.1887 19.5112 67.0574 20.9524C67.5216 21.7225 67.7597 22.5047 67.8798 23.1024ZM123.488 25.6051V21.9218H113.452L118.554 17.833C120.063 16.639 121.111 15.5464 121.697 14.5551C122.305 13.5639 122.609 12.4488 122.609 11.2097C122.609 10.0383 122.26 8.97946 121.562 8.03328C120.863 7.08711 119.872 6.34368 118.588 5.80301C117.326 5.26234 115.851 4.992 114.161 4.992C112.134 4.992 110.343 5.35245 108.788 6.07335C107.234 6.77172 105.995 7.808 105.071 9.18221L108.349 11.2773C109.588 9.58772 111.424 8.74292 113.857 8.74292C115.254 8.74292 116.324 9.00199 117.067 9.52013C117.811 10.0383 118.182 10.7141 118.182 11.5477C118.182 12.201 117.98 12.8317 117.574 13.44C117.191 14.0257 116.482 14.7354 115.445 15.5689L106.085 23.0707V25.6051H123.488ZM87.0053 23.6452C88.5598 25.1771 90.7225 25.943 93.4934 25.943C96.2643 25.943 98.4158 25.1884 99.9477 23.679C101.48 22.1471 102.246 20.0294 102.246 17.3261V6.2761H98.0553V17.1909C98.0553 18.8805 97.6611 20.1646 96.8726 21.0432C96.1066 21.8993 94.9915 22.3273 93.5272 22.3273C92.0403 22.3273 90.9027 21.888 90.1142 21.0094C89.3257 20.1308 88.9315 18.858 88.9315 17.1909V6.2761H84.6737V17.3261C84.6737 20.0069 85.4509 22.1133 87.0053 23.6452ZM145.454 25.6051L145.42 13.7103L139.506 23.4424H137.58L131.666 14.0145V25.6051H127.611V6.2761H131.261L138.594 18.3736L145.825 6.2761H149.475L149.509 25.6051H145.454ZM86.472 42.8759C87.4223 43.22 88.4135 43.392 89.4457 43.392C91.1005 43.392 92.3703 43.0479 93.255 42.3598C94.1398 41.6553 94.5821 40.746 94.5821 39.6319C94.5821 38.8127 94.3609 38.1573 93.9186 37.6658C93.4926 37.1743 92.9601 36.8138 92.3211 36.5844C91.6985 36.3387 90.8793 36.0929 89.8635 35.8472C88.946 35.6342 88.2333 35.4376 87.7254 35.2573C87.2175 35.0607 86.7833 34.7904 86.4229 34.4463C86.0788 34.0859 85.9068 33.6107 85.9068 33.0209C85.9068 32.2509 86.2263 31.6201 86.8653 31.1286C87.5042 30.6371 88.4545 30.3913 89.7161 30.3913C91.2234 30.3913 92.5014 30.7845 93.5499 31.5709L94.0414 30.5633C93.5008 30.1537 92.8536 29.8424 92.0999 29.6294C91.3463 29.4164 90.5599 29.3099 89.7407 29.3099C88.1186 29.3099 86.8652 29.6622 85.9805 30.3667C85.1122 31.0712 84.678 31.9723 84.678 33.0701C84.678 33.922 84.8992 34.602 85.3415 35.1099C85.7839 35.6014 86.3164 35.97 86.939 36.2158C87.5616 36.4452 88.389 36.6828 89.4212 36.9285C90.2895 37.1251 90.9858 37.3217 91.5101 37.5183C92.0344 37.6986 92.4686 37.9689 92.8127 38.3293C93.1731 38.6734 93.3533 39.1403 93.3533 39.7302C93.3533 40.5002 93.0256 41.1228 92.3703 41.598C91.7313 42.0731 90.7646 42.3107 89.4703 42.3107C88.5528 42.3107 87.6763 42.155 86.8407 41.8437C86.0051 41.5324 85.3334 41.1228 84.8255 40.6149L84.2602 41.5488C84.8009 42.0895 85.5382 42.5318 86.472 42.8759ZM107.573 30.6862C106.574 29.8506 105.189 29.4328 103.42 29.4328H98.2833V43.2691H99.5121V38.8209H103.42C105.189 38.8209 106.574 38.4113 107.573 37.5921C108.589 36.7565 109.097 35.6014 109.097 34.1268C109.097 32.6523 108.589 31.5054 107.573 30.6862ZM106.688 36.8302C105.935 37.4528 104.829 37.7641 103.371 37.7641H99.5121V30.5142H103.371C104.829 30.5142 105.935 30.8255 106.688 31.4481C107.458 32.0707 107.843 32.9636 107.843 34.1268C107.843 35.2901 107.458 36.1912 106.688 36.8302ZM120.411 39.4353H112.375L110.605 43.2691H109.352L115.766 29.4328H116.995L123.434 43.2691H122.156L120.411 39.4353ZM119.92 38.4031L116.381 30.6862L112.842 38.4031H119.92ZM127.913 42.4827C129.027 43.0889 130.272 43.392 131.648 43.392C132.68 43.392 133.623 43.2282 134.475 42.9005C135.343 42.5564 136.088 42.0649 136.711 41.4259L135.925 40.6149C134.81 41.729 133.393 42.2861 131.673 42.2861C130.526 42.2861 129.486 42.0321 128.552 41.5242C127.634 40.9999 126.905 40.2872 126.364 39.3861C125.84 38.4686 125.578 37.4528 125.578 36.3387C125.578 35.2246 125.84 34.217 126.364 33.3158C126.905 32.4147 127.634 31.7102 128.552 31.2023C129.486 30.678 130.526 30.4159 131.673 30.4159C133.393 30.4159 134.81 30.9729 135.925 32.087L136.711 31.2515C136.105 30.6125 135.367 30.1291 134.499 29.8015C133.647 29.4738 132.697 29.3099 131.648 29.3099C130.272 29.3099 129.027 29.6213 127.913 30.2438C126.799 30.85 125.922 31.6938 125.283 32.7752C124.644 33.8401 124.325 35.028 124.325 36.3387C124.325 37.6658 124.644 38.87 125.283 39.9514C125.922 41.0163 126.799 41.8601 127.913 42.4827ZM149.999 42.2123V43.2691H140.218V29.4328H149.704V30.5142H141.447V35.7243H148.82V36.7811H141.447V42.2123H149.999Z" fill="#4F4F4F"/>
</svg>
