<svg width="48" height="33" viewBox="0 0 48 33" fill="none" xmlns="http://www.w3.org/2000/svg">
<path fill-rule="evenodd" clip-rule="evenodd" d="M16 2.46792H31.36C37.2376 2.46792 42.2663 6.10239 44.3214 11.2465C43.2913 10.6579 41.9389 10.2751 40.1796 10.2751C38.3022 10.2751 36.9089 11.0722 35.7552 12.1516C34.927 12.9266 34.1611 13.9136 33.4205 14.868C33.18 15.1778 32.9422 15.4843 32.7057 15.7791C31.7 17.0325 30.63 18.2034 29.2334 19.0705C27.8549 19.9264 26.1075 20.5167 23.7076 20.5167C21.3077 20.5167 19.5603 19.9264 18.1818 19.0705C16.7851 18.2034 15.7151 17.0325 14.7094 15.7791C14.4727 15.4841 14.2347 15.1774 13.9941 14.8673C13.2535 13.9129 12.4881 12.9266 11.6599 12.1516C10.5062 11.0722 9.11288 10.2751 7.23551 10.2751C5.4351 10.2751 4.06092 10.676 3.02206 11.2881C5.06658 6.12199 10.1066 2.46792 16 2.46792ZM31.36 0.419922C37.7624 0.419922 47.3771 5.06023 47.3771 16.4395C47.3771 25.276 40.1966 32.4199 31.36 32.4199H16C7.16344 32.4199 0 25.2565 0 16.4199C0 7.58337 7.16344 0.419922 16 0.419922H31.36ZM45.312 16.4199C45.312 24.1254 39.0655 30.3719 31.36 30.3719H16C8.3976 30.3719 2.07802 24.0182 2.08603 16.4211L2.08603 16.4221L2.08602 16.4239C2.08602 15.7791 2.18996 15.2521 2.71071 14.3882C3.28983 13.4274 4.49344 12.3231 7.23551 12.3231C8.44488 12.3231 9.36201 12.8063 10.2606 13.6471C10.9597 14.3012 11.5796 15.0994 12.2887 16.0126C12.5484 16.3471 12.8201 16.6969 13.1121 17.0608C14.1608 18.3678 15.4053 19.7573 17.1015 20.8104C18.8158 21.8749 20.9397 22.5647 23.7076 22.5647C26.4754 22.5647 28.5993 21.8749 30.3136 20.8104C32.0099 19.7573 33.2544 18.3678 34.3031 17.0608C34.595 16.697 34.8666 16.3471 35.1263 16.0127C35.8355 15.0996 36.4555 14.3012 37.1545 13.6471C38.0531 12.8063 38.9703 12.3231 40.1796 12.3231C42.9217 12.3231 44.1253 13.4274 44.7044 14.3882C45.0139 14.9016 45.312 15.6872 45.312 16.4199Z" fill="#F7F7F7"/>
<path d="M45.3089 16.1812C45.2976 16.0838 45.2797 15.9617 45.2516 15.8216C45.1715 15.4232 45.0128 14.9017 44.7033 14.3883C44.1242 13.4275 42.9206 12.3232 40.1785 12.3232C38.9691 12.3232 38.052 12.8064 37.1534 13.6472C36.4543 14.3013 35.8343 15.0997 35.1252 16.0129C34.8655 16.3473 34.5938 16.6971 34.3019 17.0609C33.2532 18.3679 32.0087 19.7574 30.3125 20.8106C28.5982 21.875 26.4743 22.5649 23.7064 22.5649C20.9386 22.5649 18.8147 21.875 17.1004 20.8106C15.4041 19.7574 14.1596 18.3679 13.1109 17.0609C12.819 16.697 12.5473 16.3472 12.2876 16.0127C11.5784 15.0995 10.9585 14.3013 10.2595 13.6472C9.36088 12.8064 8.44375 12.3232 7.23438 12.3232C4.49232 12.3232 3.28871 13.4275 2.70958 14.3883C2.40012 14.9017 2.24136 15.4232 2.1613 15.8216C2.12164 16.019 2.10242 16.1806 2.09319 16.2879C2.08859 16.3413 2.08651 16.3807 2.08559 16.4037L2.0849 16.4253L2.0849 16.424L2.0849 16.4222L2.0849 16.4212C2.0849 16.4212 2.08491 16.4208 2.04688 16.4206C2.0472 24.1258 8.2936 30.372 15.9989 30.372H31.3589C39.0644 30.372 45.3109 24.1255 45.3109 16.42C45.3109 16.3403 45.3102 16.2607 45.3089 16.1812Z" fill="#F9329C"/>
<path d="M31.3614 2.46802H16.0014C10.1079 2.46802 5.06795 6.12209 3.02344 11.2882C4.06229 10.6761 5.43647 10.2752 7.23688 10.2752C9.11426 10.2752 10.5076 11.0723 11.6613 12.1517C12.4895 12.9267 13.2549 13.913 13.9955 14.8674C14.2361 15.1775 14.4741 15.4842 14.7108 15.7792C15.7165 17.0326 16.7865 18.2035 18.1831 19.0706C19.5616 19.9265 21.309 20.5168 23.7089 20.5168C26.1088 20.5168 27.8562 19.9265 29.2347 19.0706C30.6314 18.2035 31.7014 17.0326 32.7071 15.7792C32.9436 15.4844 33.1814 15.1779 33.4218 14.8681C34.1625 13.9137 34.9284 12.9267 35.7566 12.1517C36.9103 11.0723 38.3036 10.2752 40.181 10.2752C41.9403 10.2752 43.2926 10.658 44.3228 11.2466C42.2677 6.10249 37.239 2.46802 31.3614 2.46802Z" fill="#3486FE"/>
</svg>
