<svg width="48" height="33" viewBox="0 0 48 33" fill="none" xmlns="http://www.w3.org/2000/svg">
<path fill-rule="evenodd" clip-rule="evenodd" d="M16.3984 2.46792H31.7584C37.636 2.46792 42.6648 6.10239 44.7198 11.2465C43.6897 10.6579 42.3374 10.2751 40.5781 10.2751C38.7007 10.2751 37.3074 11.0722 36.1537 12.1516C35.3254 12.9266 34.5595 13.9136 33.8189 14.868C33.5785 15.1778 33.3406 15.4843 33.1041 15.7791C32.0985 17.0325 31.0284 18.2034 29.6318 19.0705C28.2533 19.9264 26.5059 20.5167 24.106 20.5167C21.7061 20.5167 19.9587 19.9264 18.5802 19.0705C17.1836 18.2034 16.1135 17.0325 15.1079 15.7791C14.8712 15.4841 14.6332 15.1774 14.3926 14.8673C13.6519 13.9129 12.8866 12.9266 12.0583 12.1516C10.9046 11.0722 9.51132 10.2751 7.63395 10.2751C5.83354 10.2751 4.45936 10.676 3.4205 11.2881C5.46502 6.12199 10.505 2.46792 16.3984 2.46792ZM31.7584 0.419922C40.4724 0.419922 47.5594 7.38605 47.7543 16.0532C47.7563 16.0736 47.7581 16.0932 47.7597 16.112C47.7672 16.1986 47.7711 16.2692 47.7732 16.3213C47.7739 16.3388 47.7744 16.3542 47.7747 16.3675C47.7749 16.374 47.775 16.3799 47.7752 16.3853L47.7754 16.3994L47.7755 16.4064L47.7755 16.4141L47.7755 16.4173V16.4187C47.7755 16.4187 47.7755 16.4198 47.7584 16.4199C47.7584 25.2565 40.595 32.4199 31.7584 32.4199H16.3984C7.56188 32.4199 0.398438 25.2565 0.398438 16.4199C0.398438 7.58337 7.56188 0.419922 16.3984 0.419922H31.7584ZM45.6511 15.8215C45.6793 15.9616 45.6971 16.0837 45.7084 16.1811C45.7098 16.2605 45.7104 16.3401 45.7104 16.4199C45.7104 24.1254 39.4639 30.3719 31.7584 30.3719H16.3984C8.69316 30.3719 2.44676 24.1257 2.44644 16.4205C2.48447 16.4207 2.48447 16.4211 2.48447 16.4211L2.48447 16.4221L2.48446 16.4239L2.48446 16.4251L2.48515 16.4035C2.48607 16.3806 2.48815 16.3412 2.49275 16.2877C2.50199 16.1805 2.5212 16.0189 2.56086 15.8215C2.64092 15.4231 2.79968 14.9016 3.10915 14.3882C3.68827 13.4274 4.89188 12.3231 7.63395 12.3231C8.84331 12.3231 9.76044 12.8063 10.6591 13.6471C11.3581 14.3012 11.978 15.0994 12.6872 16.0126C12.9469 16.3471 13.2186 16.6969 13.5105 17.0608C14.5592 18.3678 15.8037 19.7573 17.4999 20.8104C19.2143 21.8749 21.3381 22.5647 24.106 22.5647C26.8739 22.5647 28.9977 21.8749 30.7121 20.8104C32.4083 19.7573 33.6528 18.3678 34.7015 17.0608C34.9934 16.697 35.2651 16.3471 35.5247 16.0127C36.2339 15.0996 36.8539 14.3012 37.5529 13.6471C38.4516 12.8063 39.3687 12.3231 40.5781 12.3231C43.3201 12.3231 44.5237 13.4274 45.1029 14.3882C45.4123 14.9016 45.5711 15.4231 45.6511 15.8215Z" fill="#3486FE"/>
</svg>
