<svg width="49" height="33" viewBox="0 0 49 33" fill="none" xmlns="http://www.w3.org/2000/svg">
<path fill-rule="evenodd" clip-rule="evenodd" d="M16.8008 2.51577H32.1608C38.0384 2.51577 43.0671 6.15024 45.1222 11.2944C44.092 10.7057 42.7397 10.323 40.9804 10.323C39.103 10.323 37.7097 11.12 36.556 12.1995C35.7278 12.9744 34.9619 13.9614 34.2212 14.9159C33.9808 15.2257 33.743 15.5322 33.5065 15.8269C32.5008 17.0803 31.4308 18.2512 30.0341 19.1184C28.6556 19.9743 26.9083 20.5646 24.5083 20.5646C22.1084 20.5646 20.361 19.9743 18.9825 19.1184C17.5859 18.2512 16.5159 17.0803 15.5102 15.8269C15.2735 15.5319 15.0355 15.2253 14.7949 14.9152C14.0543 13.9608 13.2889 12.9744 12.4607 12.1995C11.307 11.12 9.91366 10.323 8.03629 10.323C6.23588 10.323 4.8617 10.7238 3.82284 11.336C5.86736 6.16984 10.9073 2.51577 16.8008 2.51577ZM32.1608 0.467773C40.8748 0.467773 47.9618 7.4339 48.1567 16.1011C48.1586 16.1215 48.1604 16.1411 48.162 16.1599C48.1695 16.2465 48.1735 16.3171 48.1755 16.3692C48.1762 16.3867 48.1767 16.4021 48.1771 16.4153C48.1773 16.4218 48.1774 16.4278 48.1775 16.4332L48.1777 16.4472L48.1778 16.4543L48.1779 16.462L48.1779 16.4651V16.4665C48.1779 16.4665 48.1779 16.4676 48.1608 16.4678C48.1608 25.3043 40.9973 32.4678 32.1608 32.4678H16.8008C7.96422 32.4678 0.800781 25.3043 0.800781 16.4678C0.800781 7.63122 7.96423 0.467773 16.8008 0.467773H32.1608ZM46.0535 15.8694C46.0816 16.0095 46.0995 16.1315 46.1108 16.2289C46.1121 16.3084 46.1128 16.388 46.1128 16.4678C46.1128 24.1733 39.8663 30.4198 32.1608 30.4198H16.8008C9.0955 30.4198 2.84911 24.1736 2.84878 16.4684C2.88681 16.4685 2.88681 16.4689 2.88681 16.4689L2.88681 16.47L2.8868 16.4717L2.88681 16.473L2.88749 16.4514C2.88842 16.4284 2.89049 16.389 2.89509 16.3356C2.90433 16.2283 2.92354 16.0668 2.96321 15.8694C3.04327 15.4709 3.20202 14.9494 3.51149 14.436C4.09062 13.4753 5.29422 12.371 8.03629 12.371C9.24566 12.371 10.1628 12.8541 11.0614 13.695C11.7604 14.349 12.3804 15.1473 13.0895 16.0605C13.3492 16.3949 13.6209 16.7448 13.9128 17.1086C14.9615 18.4156 16.206 19.8051 17.9023 20.8583C19.6166 21.9227 21.7405 22.6126 24.5083 22.6126C27.2762 22.6126 29.4001 21.9227 31.1144 20.8583C32.8107 19.8051 34.0551 18.4156 35.1038 17.1086C35.3957 16.7448 35.6674 16.395 35.9271 16.0606C36.6362 15.1474 37.2562 14.349 37.9553 13.695C38.8539 12.8541 39.771 12.371 40.9804 12.371C43.7225 12.371 44.9261 13.4753 45.5052 14.436C45.8147 14.9494 45.9734 15.4709 46.0535 15.8694Z" fill="#4F4F4F"/>
</svg>
